<?xml version="1.0" encoding="UTF-8"?>
<svg id="_レイヤー_1" data-name="レイヤー 1" xmlns="http://www.w3.org/2000/svg" viewBox="0 0 1024 1024">
  <defs>
    <style>
      .cls-1 {
        fill: #f0b101;
      }

      .cls-2 {
        fill: #225ba0;
      }

      .cls-3 {
        fill: #3f3007;
      }
    </style>
  </defs>
  <g>
    <polygon class="cls-3" points="175.8491211 284.0810547 152.6049805 284.0810547 152.6049805 154.5703125 282.1162109 154.5703125 282.1162109 177.8144531 175.8491211 177.8144531 175.8491211 284.0810547"/>
    <polygon class="cls-3" points="282.1162109 869.4296875 152.6049805 869.4296875 152.6049805 739.9189453 175.8491211 739.9189453 175.8491211 846.1855469 282.1162109 846.1855469 282.1162109 869.4296875"/>
    <polygon class="cls-3" points="871.3950195 284.0810547 848.1508789 284.0810547 848.1508789 177.8144531 741.8837891 177.8144531 741.8837891 154.5703125 871.3950195 154.5703125 871.3950195 284.0810547"/>
    <polygon class="cls-3" points="871.3950195 869.4296875 741.8837891 869.4296875 741.8837891 846.1855469 848.1508789 846.1855469 848.1508789 739.9189453 871.3950195 739.9189453 871.3950195 869.4296875"/>
  </g>
  <g>
    <g>
      <rect class="cls-1" x="240.5888199" y="412.0267192" width="227.9188495" height="227.9188495" transform="translate(-268.0835926 404.7612428) rotate(-45)"/>
      <path class="cls-3" d="m354.5483398,703.5859375l-177.5996094-177.5996094,177.5996094-177.5996094,177.5996094,177.5996094-177.5996094,177.5996094Zm-144.7265625-177.5996094l144.7265625,144.7265625,144.7265625-144.7265625-144.7265625-144.7265625-144.7265625,144.7265625Z"/>
    </g>
    <g>
      <rect class="cls-1" x="401.751784" y="250.8637551" width="227.9188495" height="227.9188495" transform="translate(-106.9206285 471.5171283) rotate(-45)"/>
      <path class="cls-3" d="m515.7114258,542.4228516l-177.5996094-177.5996094,177.5996094-177.5996094,177.5991211,177.5996094-177.5991211,177.5996094Zm-144.7265625-177.5996094l144.7265625,144.7265625,144.7260742-144.7265625-144.7260742-144.7265625-144.7265625,144.7265625Z"/>
    </g>
    <g>
      <rect class="cls-1" x="401.751784" y="573.1896832" width="227.9188495" height="227.9188495" transform="translate(-334.839478 565.9242069) rotate(-45)"/>
      <path class="cls-3" d="m515.7114258,864.7490234l-177.5996094-177.5996094,177.5996094-177.5996094,177.5991211,177.5996094-177.5991211,177.5996094Zm-144.7265625-177.5996094l144.7265625,144.7265625,144.7260742-144.7265625-144.7260742-144.7265625-144.7265625,144.7265625Z"/>
    </g>
    <g>
      <path class="cls-2" d="m761.6812982,437.848954c61.4585197,1.7479021,77.2601252,43.1689719,35.0383425,84.5900417,42.2217827,41.4210698,26.4201772,82.8421397-35.0383425,84.5900417-1.7479021,61.4585197-43.1689719,77.2601252-84.5900417,35.0383425-41.4210698,42.2217827-82.8421397,26.4201772-84.5900417-35.0383425-61.4585197-1.7479021-77.2601252-43.1689719-35.0383425-84.5900417-42.2217827-41.4210698-26.4201772-82.8421397,35.0383425-84.5900417,1.7479021-61.4585197,43.1689719-77.2601252,84.5900417-35.0383425,41.4210698-42.2217827,82.8421397-26.4201772,84.5900417,35.0383425Z"/>
      <path class="cls-3" d="m632.1074219,677.3759766c-5.5795898,0-10.9926758-.9931641-16.1479492-3.0146484-19.0498047-7.4697266-31.2861328-27.7685547-34.3686523-56.421875-28.6538086-3.0830078-48.9521484-15.3183594-56.421875-34.3681641-7.2553711-18.5039062-1.2705078-40.3642578,16.4052734-61.1318359-17.6757812-20.7685547-23.6611328-42.6289062-16.4052734-61.1328125,7.4702148-19.0498047,27.7680664-31.2861328,56.421875-34.3681641,3.0825195-28.6533203,15.3188477-48.9521484,34.3686523-56.421875,18.5048828-7.2539062,40.3642578-1.2705078,61.1318359,16.4052734,20.7670898-17.6757812,42.6264648-23.6621094,61.1318359-16.4052734,19.0498047,7.4707031,31.2861328,27.7685547,34.3681641,56.421875,28.6538086,3.0830078,48.9521484,15.3183594,56.421875,34.3681641,7.2558594,18.5039062,1.2709961,40.3642578-16.4047852,61.1328125,17.6757812,20.7675781,23.6606445,42.6279297,16.4052734,61.1308594-7.4702148,19.0507812-27.7680664,31.2861328-56.4223633,34.3691406-3.0820312,28.6533203-15.3183594,48.9511719-34.3681641,56.421875-18.5039062,7.2548828-40.3642578,1.2705078-61.1318359-16.4052734-14.9819336,12.7519531-30.5356445,19.4189453-44.9838867,19.4199219Zm44.9838867-51.9042969l8.2963867,8.4570312c16.0522461,16.3613281,32.6318359,23.3867188,44.3496094,18.7919922,12.0424805-4.7216797,19.6411133-21.9267578,20.3261719-46.0214844l.3120117-10.9755859,10.9750977-.3115234c24.0957031-.6855469,41.3007812-8.2841797,46.0224609-20.3271484,4.5952148-11.7177734-2.4301758-28.296875-18.7924805-44.3486328l-8.456543-8.296875,8.456543-8.2958984c16.3623047-16.0527344,23.3876953-32.6328125,18.7924805-44.3505859-4.722168-12.0429688-21.9267578-19.6416016-46.0224609-20.3271484l-10.9750977-.3115234-.3120117-10.9755859c-.6850586-24.0947266-8.2836914-41.2998047-20.3261719-46.0214844-11.7177734-4.5966797-28.2978516,2.4296875-44.3496094,18.7919922l-8.2963867,8.4570312-8.2963867-8.4570312c-16.0517578-16.3623047-32.6318359-23.3857422-44.3496094-18.7919922-12.0429688,4.7216797-19.6416016,21.9267578-20.3266602,46.0214844l-.3125,10.9755859-10.9746094.3115234c-24.0957031.6855469-41.300293,8.2841797-46.0224609,20.3271484-4.5947266,11.7177734,2.4306641,28.2978516,18.7929688,44.3505859l8.456543,8.2958984-8.456543,8.296875c-16.3623047,16.0517578-23.3876953,32.6308594-18.7929688,44.3486328,4.722168,12.0429688,21.9267578,19.6416016,46.0224609,20.3271484l10.9746094.3115234.3125,10.9755859c.6850586,24.0947266,8.2836914,41.2998047,20.3266602,46.0214844,11.7177734,4.5966797,28.2978516-2.4296875,44.3496094-18.7919922l8.2963867-8.4570312Z"/>
    </g>
  </g>
</svg>