<svg width="283" height="170" viewBox="0 0 283 170" fill="none" xmlns="http://www.w3.org/2000/svg">
<path d="M73.8523 31.2C74.9523 33.1 76.2523 34.15 78.4523 34.6C79.0023 34.7 79.8023 34.8 80.4023 34.8V36.2C76.4523 37.9 73.6023 38.65 70.9523 38.65C67.1523 38.65 65.1523 36.7 63.6023 33.6L58.8023 24.1L56.3023 24.05V32.15C56.3023 33.75 56.4023 34.45 56.6523 35.05C58.0523 35.5 59.8023 36.3 60.8023 36.9V38H42.2523V36.9C43.2523 36.3 44.4023 35.6 45.9023 35.1C46.2023 34.5 46.3023 33.85 46.3023 32.15V10C46.3023 8.25 46.1523 7.6 45.8023 7C44.5523 6.55 43.3523 5.85 42.3023 5.25V4.15H62.9523C69.4023 4.15 73.9023 7.25 73.9023 13C73.9023 16.45 71.5023 19.4 68.2023 21.35L73.8523 31.2ZM56.4523 6.8C56.3523 9.25 56.3023 11.7 56.3023 13.5V21.55C61.4023 21.3 63.4023 19.35 63.4023 14.65C63.4023 8.9 60.8523 7.05 56.4523 6.8ZM88.8141 25.95C89.2141 30.85 91.5141 33.5 95.6141 33.5C97.4641 33.5 99.7641 32.8 102.414 31.9L102.964 33.75C98.9641 36.85 95.2641 38.55 90.1641 38.55C83.9641 38.55 79.4641 33.7 79.4641 26.75C79.4641 19.1 85.3141 14.15 92.3641 14.15C98.9641 14.15 102.414 17.15 102.964 24.9L102.164 25.95H88.8141ZM94.1641 23.6C93.8141 19 92.8641 16.45 90.9141 16.45C89.2141 16.45 88.6641 18.25 88.6141 23.6H94.1641ZM127.542 31.7C127.542 33.15 127.992 34.25 129.092 34.65C129.492 34.8 130.342 34.95 131.692 35.1V36.3C129.392 37.5 126.192 38.5 124.292 38.5C121.642 38.5 119.542 37.05 118.942 34.9C117.092 37.05 115.042 38.55 111.842 38.55C108.042 38.55 105.192 35.75 105.192 31.95C105.192 29.7 105.892 27.85 107.842 26.65C109.092 25.9 113.092 24.7 118.392 23.5C118.292 20.5 117.042 18.95 113.842 18.95C111.642 18.95 109.092 19.75 107.042 20.5L106.492 18.2C110.142 15.95 114.592 14.15 117.892 14.15C122.842 14.15 127.542 16.1 127.542 21.35V31.7ZM114.442 29.65C114.442 31.45 114.942 33.95 117.192 33.95C117.692 33.95 118.142 33.75 118.542 33.45V26.2C116.992 26.3 115.642 26.5 115.292 26.8C114.592 27.4 114.442 28.75 114.442 29.65ZM156.805 31.65C156.805 33.1 157.255 34.2 158.355 34.6C158.755 34.75 159.605 34.9 160.955 35.05V36.25C158.555 37.4 155.555 38.55 153.655 38.55C150.855 38.55 148.705 36.95 148.155 35.25C145.205 37.35 142.855 38.55 141.405 38.55C134.855 38.55 131.905 32.65 131.905 27.9C131.905 19.45 139.505 14.7 147.705 14.2V10.75C147.705 9.3 147.655 8.3 147.405 7.65C146.155 7.35 144.905 7 143.755 6.6V5.6L155.805 0.949997H156.805V31.65ZM143.255 17.2C142.305 17.2 141.205 19.95 141.205 24.8C141.205 30.35 143.305 34.1 146.555 34.1C146.955 34.1 147.355 33.95 147.705 33.7V19.75C146.305 18.15 144.455 17.2 143.255 17.2ZM175.2 14.85H186.2V15.9C184.9 16.8 183.8 17.55 182.85 18C182.2 19.05 181.45 20.8 180.65 22.8C179.45 25.9 175.3 36.5 174.5 38.4C173.7 40.3 173.25 41.35 172 43.6C169.75 47.65 166.95 49.6 162.8 49.6C162.45 49.6 161.2 49.55 160.4 49.2C160.05 49.05 159.8 48.85 159.8 48.65C159.8 47.3 161 41.9 162.15 41.9C162.7 41.9 163.2 42 164.15 42.2C166.25 42.65 166.9 42.75 167.9 42.75C169.45 42.75 169.95 42.5 170.6 41.25C170.95 40.55 171.25 39.85 171.65 38.9L163.55 21.3C162.7 19.4 161.85 18.25 160.15 17.75C159.65 17.6 159 17.5 158.25 17.45V16.2C160.95 15.1 163.6 14.15 166.3 14.15C169.8 14.15 171.15 15.25 172.4 18.45L176.05 27.85L177.95 22.7C178.95 20.05 179.1 18.55 179.1 18C178.2 17.6 176.8 16.9 175.2 15.9V14.85ZM210.824 34.5C211.624 34.65 212.724 34.75 214.524 34.8L214.574 36.25C210.774 37.8 208.574 38.4 206.674 38.4C201.974 38.4 197.924 35.85 197.974 31.15L198.124 17.85H194.624V16.4C195.974 15.55 197.624 14.55 198.824 14C200.424 11.65 201.924 9.65 203.924 7.95H207.174V14.85H214.174V17.85H207.124V23.05C207.124 24.25 207.124 27.3 207.174 28.75C207.374 32.7 208.424 34 210.824 34.5ZM240.562 26.3C240.562 33.55 235.262 38.55 227.662 38.55C219.812 38.55 214.962 33.9 214.962 26.3C214.962 19.3 220.412 14.15 227.712 14.15C235.762 14.15 240.562 18.7 240.562 26.3ZM224.512 26.3C224.512 31.15 225.362 36.3 227.962 36.3C230.412 36.3 230.962 31.65 230.962 26.75C230.962 21.9 230.362 16.4 227.762 16.4C225.062 16.4 224.512 21.15 224.512 26.3ZM64.9371 85.95C65.3371 90.85 67.6371 93.5 71.7371 93.5C73.5871 93.5 75.8871 92.8 78.5371 91.9L79.0871 93.75C75.0871 96.85 71.3871 98.55 66.2871 98.55C60.0871 98.55 55.5871 93.7 55.5871 86.75C55.5871 79.1 61.4371 74.15 68.4871 74.15C75.0871 74.15 78.5371 77.15 79.0871 84.9L78.2871 85.95H64.9371ZM70.2871 83.6C69.9371 79 68.9871 76.45 67.0371 76.45C65.3371 76.45 64.7871 78.25 64.7371 83.6H70.2871ZM105.321 94.8C106.021 95.1 106.871 95.25 107.921 95.3L107.971 96.5C105.071 97.8 103.371 98.55 100.921 98.55C97.2207 98.55 95.5207 97.6 93.7207 94.4L91.3707 90.25L89.3707 92.9C88.7207 93.8 88.1207 95 88.0207 95.5C89.0207 95.95 90.3207 96.6 90.8707 97V98H80.0207V97C80.7707 96.45 82.5207 95.7 83.6707 95.35C84.7207 94.35 85.9707 93.05 87.0707 91.6L89.8207 88.05L84.6707 80.3C83.8207 79 83.2207 78.15 82.7707 77.65C82.1207 77.3 81.1707 76.7 80.1207 75.85V74.85H96.6207V75.85C95.4707 76.8 94.6207 77.4 93.8207 77.7C93.7207 78.3 94.0707 79.2 94.6707 80.25L96.4707 83.25L99.1207 79.45C99.6207 78.7 100.021 77.95 100.121 77.45C99.5207 77.15 98.4707 76.3 98.0207 75.85V74.85H107.671V75.85C106.921 76.4 105.571 77.1 104.471 77.45C103.371 78.3 102.271 79.5 100.871 81.4L97.8707 85.4L101.771 91.45C102.771 93 103.771 94.15 105.321 94.8ZM126.46 74.15C133.01 74.15 135.96 79.95 135.96 84.7C135.96 93.15 128.36 98 120.16 98.5V103.2C120.16 105.2 120.36 106.2 120.91 106.75C122.01 107.2 123.16 107.8 124.61 108.6V109.6H107.91V108.6C108.71 108.05 109.61 107.45 110.66 106.95C111.01 106.5 111.11 105.5 111.11 103.2V84.1C111.11 82.5 111.01 81.55 110.61 80.75C109.56 80.45 108.71 80.15 107.91 79.75V78.85L119.16 74.15H120.16V77.3C122.91 75.3 125.11 74.15 126.46 74.15ZM124.61 95.5C125.76 95.5 126.66 92.15 126.66 87.9C126.66 82.3 124.51 78.6 121.31 78.6C120.96 78.6 120.56 78.7 120.16 78.9V88.25C120.16 90.15 120.21 91.7 120.31 93.1C121.66 94.6 123.41 95.5 124.61 95.5ZM148.909 91.4C148.909 92.85 149.309 94.05 150.409 94.5C150.909 94.7 151.909 94.85 153.409 95V96.2C150.759 97.65 148.059 98.55 145.659 98.55C142.259 98.55 139.809 96 139.809 92.9V70.75C139.809 69.3 139.759 68.3 139.509 67.65C138.409 67.35 137.259 66.95 136.259 66.6V65.6L147.809 60.95H148.909V91.4ZM179.185 86.3C179.185 93.55 173.885 98.55 166.285 98.55C158.435 98.55 153.585 93.9 153.585 86.3C153.585 79.3 159.035 74.15 166.335 74.15C174.385 74.15 179.185 78.7 179.185 86.3ZM163.135 86.3C163.135 91.15 163.985 96.3 166.585 96.3C169.035 96.3 169.585 91.65 169.585 86.75C169.585 81.9 168.985 76.4 166.385 76.4C163.685 76.4 163.135 81.15 163.135 86.3ZM200.121 74.15C201.321 74.15 202.921 74.5 203.721 75C204.021 75.2 204.221 75.4 204.221 75.6C204.221 78.05 201.221 84.1 200.321 84.1C200.121 84.1 199.571 83.8 198.071 82.95C196.721 82.2 195.521 81.55 194.821 81.55C194.071 81.55 193.421 81.65 192.921 81.8V92.25C192.921 93.9 192.971 94.65 193.171 95.35C194.471 95.8 195.871 96.45 196.721 97V98H180.671V97C181.321 96.55 182.271 95.95 183.321 95.55C183.771 94.8 183.821 94 183.821 92.25V83.65C183.821 82.35 183.671 81.4 183.421 80.75C182.421 80.45 181.321 80.05 180.621 79.75V78.85L191.271 74.15H192.271L192.871 80.2C195.221 77.35 198.321 74.15 200.121 74.15ZM213.423 85.95C213.823 90.85 216.123 93.5 220.223 93.5C222.073 93.5 224.373 92.8 227.023 91.9L227.573 93.75C223.573 96.85 219.873 98.55 214.773 98.55C208.573 98.55 204.073 93.7 204.073 86.75C204.073 79.1 209.923 74.15 216.973 74.15C223.573 74.15 227.023 77.15 227.573 84.9L226.773 85.95H213.423ZM218.773 83.6C218.423 79 217.473 76.45 215.523 76.45C213.823 76.45 213.273 78.25 213.223 83.6H218.773ZM25.7928 154.85C26.3428 152.3 27.4428 149.7 28.2928 147.9H29.4428V157.1C26.4928 158 22.5928 158.65 18.5428 158.65C6.99277 158.65 0.242774 151.7 0.242774 141.15C0.242774 130.55 8.14277 123.55 20.1428 123.55C23.2928 123.55 25.7928 123.9 29.1928 124.8V134.5H28.0428C26.9928 132.4 26.3928 131.2 25.7928 129.35C25.3928 129.05 24.9428 128.8 24.3928 128.55C21.5428 127.25 19.1928 126.6 17.2928 126.6C16.6928 126.6 16.2928 126.65 15.8928 126.8C12.6928 127.85 10.8428 134.3 10.8428 140.4C10.8428 150.5 14.5428 155.85 22.0928 155.85C23.6428 155.85 24.9428 155.4 25.7928 154.85ZM59.4053 152.2C59.4053 154.45 59.5053 155.05 59.9553 155.65C60.8553 156.05 61.7053 156.6 62.2553 157V158H47.9053V157C48.3553 156.6 49.0553 156.05 49.7053 155.65C50.1553 154.9 50.2053 154.1 50.2053 152.2V148.35C50.2053 147 50.1553 144.9 50.1053 144.1C49.9053 141.1 48.8053 139.4 46.2553 139.4C45.3053 139.4 44.7053 139.6 44.3053 139.8V152.2C44.3053 154.5 44.3553 155 44.6553 155.65C45.2553 156.05 46.0553 156.6 46.5553 157V158H32.3053V157C32.8553 156.6 33.7553 156.05 34.6553 155.6C35.1553 154.85 35.2053 154.1 35.2053 152.2V131.25C35.2053 129.4 35.1053 128.2 34.8053 127.5C33.8053 127.25 32.7553 126.95 31.8553 126.6V125.6L43.3053 120.95H44.3053V138.05C47.6053 135.35 49.8553 134.15 51.5553 134.15C57.0553 134.15 59.4053 137.15 59.4053 141.55V152.2ZM75.367 125.95C75.367 128.75 73.067 131 70.267 131C67.367 131 65.117 128.8 65.117 126C65.117 123.2 67.417 121 70.317 121C73.167 121 75.367 123.2 75.367 125.95ZM75.417 152.2C75.417 153.95 75.467 154.75 75.717 155.45C76.917 155.95 77.917 156.5 78.717 157V158H63.017V157C63.817 156.5 64.667 156 65.817 155.55C66.267 154.8 66.317 154.05 66.317 152.2V143.15C66.317 141.85 66.217 140.9 65.917 140.25C64.967 139.95 64.017 139.6 63.217 139.25V138.35L74.617 134.15H75.617C75.467 136.75 75.417 139.35 75.417 142.35V152.2ZM90.6814 151.4C90.6814 152.85 91.0814 154.05 92.1814 154.5C92.6814 154.7 93.6814 154.85 95.1814 155V156.2C92.5314 157.65 89.8314 158.55 87.4314 158.55C84.0314 158.55 81.5814 156 81.5814 152.9V130.75C81.5814 129.3 81.5314 128.3 81.2814 127.65C80.1814 127.35 79.0314 126.95 78.0314 126.6V125.6L89.5814 120.95H90.6814V151.4ZM106.746 151.4C106.746 152.85 107.146 154.05 108.246 154.5C108.746 154.7 109.746 154.85 111.246 155V156.2C108.596 157.65 105.896 158.55 103.496 158.55C100.096 158.55 97.6459 156 97.6459 152.9V130.75C97.6459 129.3 97.5959 128.3 97.3459 127.65C96.2459 127.35 95.0959 126.95 94.0959 126.6V125.6L105.646 120.95H106.746V151.4ZM125.273 134.85H136.273V135.9C134.973 136.8 133.873 137.55 132.923 138C132.273 139.05 131.523 140.8 130.723 142.8C129.523 145.9 125.373 156.5 124.573 158.4C123.773 160.3 123.323 161.35 122.073 163.6C119.823 167.65 117.023 169.6 112.873 169.6C112.523 169.6 111.273 169.55 110.473 169.2C110.123 169.05 109.873 168.85 109.873 168.65C109.873 167.3 111.073 161.9 112.223 161.9C112.773 161.9 113.273 162 114.223 162.2C116.323 162.65 116.973 162.75 117.973 162.75C119.523 162.75 120.023 162.5 120.673 161.25C121.023 160.55 121.323 159.85 121.723 158.9L113.623 141.3C112.773 139.4 111.923 138.25 110.223 137.75C109.723 137.6 109.073 137.5 108.323 137.45V136.2C111.023 135.1 113.673 134.15 116.373 134.15C119.873 134.15 121.223 135.25 122.473 138.45L126.123 147.85L128.023 142.7C129.023 140.05 129.173 138.55 129.173 138C128.273 137.6 126.873 136.9 125.273 135.9V134.85ZM163.947 124.15C169.697 124.15 174.097 125.8 177.097 129C179.347 131.35 180.997 135.1 180.997 140.3C180.997 150.65 174.597 158 163.847 158H145.597V156.9C146.497 156.35 147.947 155.6 149.147 155.1C149.497 154.65 149.647 153.6 149.647 152.15V130C149.647 128.55 149.447 127.6 149.147 127C148.197 126.65 146.947 126.05 145.647 125.25V124.15H163.947ZM159.697 155.65L161.797 155.6C168.047 155.4 170.447 150.6 170.447 142.05C170.447 132.7 166.797 126.7 161.047 126.45L159.797 126.4C159.697 129.1 159.647 132.05 159.647 134.2V148.2C159.647 150.25 159.647 153.05 159.697 155.65ZM205.349 151.7C205.349 153.15 205.799 154.25 206.899 154.65C207.299 154.8 208.149 154.95 209.499 155.1V156.3C207.199 157.5 203.999 158.5 202.099 158.5C199.449 158.5 197.349 157.05 196.749 154.9C194.899 157.05 192.849 158.55 189.649 158.55C185.849 158.55 182.999 155.75 182.999 151.95C182.999 149.7 183.699 147.85 185.649 146.65C186.899 145.9 190.899 144.7 196.199 143.5C196.099 140.5 194.849 138.95 191.649 138.95C189.449 138.95 186.899 139.75 184.849 140.5L184.299 138.2C187.949 135.95 192.399 134.15 195.699 134.15C200.649 134.15 205.349 136.1 205.349 141.35V151.7ZM192.249 149.65C192.249 151.45 192.749 153.95 194.999 153.95C195.499 153.95 195.949 153.75 196.349 153.45V146.2C194.799 146.3 193.449 146.5 193.099 146.8C192.399 147.4 192.249 148.75 192.249 149.65ZM229.79 154.35C230.14 153.05 230.74 151.5 231.59 149.45H232.89V158H210.74V155.55C211.94 153.8 213.74 151.1 214.34 150.2L219.54 142.05C220.34 140.85 221.44 139 222.24 137.6H217.54C215.89 137.6 214.89 137.95 214.24 138.55C213.94 139.9 213.44 141.4 212.69 143H211.39V134.85H232.79V137C232.09 138 230.04 140.95 228.94 142.65L224.29 149.95C223.44 151.3 222.24 153.3 221.19 155.2H226.94C228.54 155.2 229.29 154.85 229.79 154.35ZM243.965 145.95C244.365 150.85 246.665 153.5 250.765 153.5C252.615 153.5 254.915 152.8 257.565 151.9L258.115 153.75C254.115 156.85 250.415 158.55 245.315 158.55C239.115 158.55 234.615 153.7 234.615 146.75C234.615 139.1 240.465 134.15 247.515 134.15C254.115 134.15 257.565 137.15 258.115 144.9L257.315 145.95H243.965ZM249.315 143.6C248.965 139 248.015 136.45 246.065 136.45C244.365 136.45 243.815 138.25 243.765 143.6H249.315ZM270.705 146.35H267.355L266.005 138.75C271.105 136.8 272.405 135.5 272.405 132.35C272.405 129.55 270.805 128.2 267.705 128.2C265.555 128.2 263.255 128.75 260.805 129.8L260.255 127.25C264.455 124.55 268.055 123.2 271.905 123.2C278.605 123.2 282.405 126.1 282.405 130.7C282.405 135.4 278.805 138.5 271.855 140L270.705 146.35ZM273.905 153.6C273.905 156.2 271.755 158.35 269.155 158.35C266.555 158.35 264.405 156.2 264.405 153.6C264.405 151 266.555 148.85 269.155 148.85C271.755 148.85 273.905 151 273.905 153.6Z" fill="#3F3007"/>
</svg>
