<svg width="50" height="50" viewBox="0 0 50 50" fill="none" xmlns="http://www.w3.org/2000/svg">
<path d="M38.1525 10.1155L38.1793 11.0598L39.1236 11.0866C44.2526 11.2325 47.0455 13.0187 47.9141 15.1715C48.78 17.3178 47.9845 20.4592 44.4713 23.9057L43.7437 24.6196L44.4713 25.3334C47.9845 28.7799 48.78 31.9213 47.9141 34.0676C47.0455 36.2204 44.2526 38.0066 39.1236 38.1525L38.1793 38.1793L38.1525 39.1237C38.0066 44.2527 36.2204 47.0455 34.0676 47.9141C31.9213 48.78 28.7799 47.9845 25.3334 44.4713L24.6196 43.7437L23.9057 44.4713C20.4592 47.9845 17.3178 48.78 15.1715 47.9141C13.0187 47.0455 11.2325 44.2527 11.0866 39.1237L11.0598 38.1793L10.1155 38.1525C4.98648 38.0066 2.19361 36.2204 1.32506 34.0676C0.45913 31.9213 1.25464 28.7799 4.76779 25.3334L5.49543 24.6196L4.76779 23.9057C1.25464 20.4592 0.45913 17.3178 1.32506 15.1715C2.19361 13.0187 4.98648 11.2325 10.1155 11.0866L11.0598 11.0598L11.0866 10.1155C11.2325 4.98648 13.0187 2.19361 15.1715 1.32506C17.3178 0.45913 20.4592 1.25464 23.9057 4.76779L24.6196 5.49543L25.3334 4.76779C28.7799 1.25464 31.9213 0.45913 34.0676 1.32506C36.2204 2.19361 38.0066 4.98648 38.1525 10.1155Z" fill="#225BA0" stroke="#3F3007" stroke-width="2"/>
</svg>
