<svg width="346" height="114" viewBox="0 0 346 114" fill="none" xmlns="http://www.w3.org/2000/svg">
<rect x="1.12308" y="1.12308" width="343.754" height="111.754" fill="#FCF9ED" stroke="#3F3007" stroke-width="1.75385"/>
<mask id="mask0_159_1748" style="mask-type:alpha" maskUnits="userSpaceOnUse" x="2" y="2" width="342" height="110">
<mask id="path-2-inside-1_159_1748" fill="white">
<path d="M2 2H344V112H2V2Z"/>
</mask>
<path d="M2 2H344V112H2V2Z" fill="#FCF9ED"/>
<path d="M2 3.75385H344V0.246154H2V3.75385ZM344 110.246H2V113.754H344V110.246Z" fill="#3F3007" mask="url(#path-2-inside-1_159_1748)"/>
</mask>
<g mask="url(#mask0_159_1748)">
<path d="M319.021 48.6855L322.593 58.3724C323.998 62.1835 326.998 65.1906 330.806 66.6046L340.588 70.2368C351.161 74.1628 351.161 89.1171 340.588 93.0431L330.806 96.6753C326.998 98.0893 323.998 101.096 322.593 104.908L319.021 114.594C315.109 125.202 300.107 125.202 296.195 114.594L292.623 104.908C291.218 101.096 288.218 98.0893 284.41 96.6753L274.628 93.0431C264.056 89.1171 264.056 74.1628 274.628 70.2368L284.41 66.6046C288.218 65.1906 291.218 62.1836 292.623 58.3724L296.195 48.6855C300.107 38.078 315.109 38.078 319.021 48.6855Z" fill="#00995E" stroke="#3F3007" stroke-width="1.75385"/>
<path d="M260.914 9.96483C262.245 6.06851 267.755 6.06851 269.086 9.96482L272.97 21.3393C273.402 22.6044 274.396 23.5979 275.661 24.0299L287.035 27.9142C290.931 29.2447 290.931 34.7553 287.035 36.0858L275.661 39.9701C274.396 40.4021 273.402 41.3956 272.97 42.6607L269.086 54.0352C267.755 57.9315 262.245 57.9315 260.914 54.0352L257.03 42.6607C256.598 41.3956 255.604 40.4021 254.339 39.9701L242.965 36.0858C239.069 34.7553 239.069 29.2447 242.965 27.9142L254.339 24.0299C255.604 23.5979 256.598 22.6044 257.03 21.3393L260.914 9.96483Z" fill="#3F3007"/>
<path d="M260.915 15.3615C262.245 11.4652 267.756 11.4652 269.086 15.3615L271.597 22.7131C272.029 23.9781 273.022 24.9716 274.287 25.4036L281.639 27.9141C285.535 29.2446 285.535 34.7552 281.639 36.0857L274.287 38.5962C273.022 39.0282 272.029 40.0217 271.597 41.2867L269.086 48.6383C267.756 52.5346 262.245 52.5346 260.915 48.6383L258.404 41.2867C257.972 40.0217 256.979 39.0282 255.714 38.5962L248.362 36.0857C244.466 34.7552 244.466 29.2446 248.362 27.9141L255.714 25.4036C256.979 24.9716 257.972 23.9781 258.404 22.7131L260.915 15.3615Z" fill="#FCF9ED"/>
<mask id="path-7-inside-2_159_1748" fill="white">
<path fill-rule="evenodd" clip-rule="evenodd" d="M19.1246 65.8228H12.5245V78.364L3.48338 69.2911L-1.18359 73.9744L7.95508 83.1452H-4.7373V89.7684H7.95471L-1.17513 98.9303L3.49184 103.614L12.5245 94.5492V107.6H19.1246V94.3539L28.2542 103.516L32.9212 98.8322L23.8891 89.7684H36.8941V83.1452H23.8888L32.9297 74.0725L28.2627 69.3892L19.1246 78.5593V65.8228Z"/>
</mask>
<path fill-rule="evenodd" clip-rule="evenodd" d="M19.1246 65.8228H12.5245V78.364L3.48338 69.2911L-1.18359 73.9744L7.95508 83.1452H-4.7373V89.7684H7.95471L-1.17513 98.9303L3.49184 103.614L12.5245 94.5492V107.6H19.1246V94.3539L28.2542 103.516L32.9212 98.8322L23.8891 89.7684H36.8941V83.1452H23.8888L32.9297 74.0725L28.2627 69.3892L19.1246 78.5593V65.8228Z" fill="#00995E"/>
<path d="M12.5245 65.8228V64.0689H10.7707V65.8228H12.5245ZM19.1246 65.8228H20.8785V64.0689H19.1246V65.8228ZM12.5245 78.364L11.2822 79.602L14.2784 82.6087V78.364H12.5245ZM3.48338 69.2911L4.7257 68.0531L3.48338 66.8064L2.24105 68.0531L3.48338 69.2911ZM-1.18359 73.9744L-2.42592 72.7365L-3.65957 73.9744L-2.42592 75.2124L-1.18359 73.9744ZM7.95508 83.1452V84.899H12.1788L9.19741 81.9072L7.95508 83.1452ZM-4.7373 83.1452V81.3913H-6.49115V83.1452H-4.7373ZM-4.7373 89.7684H-6.49115V91.5223H-4.7373V89.7684ZM7.95471 89.7684L9.19704 91.0064L12.1784 88.0146H7.95471V89.7684ZM-1.17513 98.9303L-2.41745 97.6923L-3.65111 98.9303L-2.41745 100.168L-1.17513 98.9303ZM3.49184 103.614L2.24952 104.852L3.49184 106.098L4.73417 104.852L3.49184 103.614ZM12.5245 94.5492H14.2784V90.3046L11.2822 93.3113L12.5245 94.5492ZM12.5245 107.6H10.7707V109.354H12.5245V107.6ZM19.1246 107.6V109.354H20.8785V107.6H19.1246ZM19.1246 94.3539L20.367 93.1159L17.3708 90.1093V94.3539H19.1246ZM28.2542 103.516L27.0119 104.754L28.2542 106L29.4966 104.754L28.2542 103.516ZM32.9212 98.8322L34.1635 100.07L35.3972 98.8322L34.1635 97.5942L32.9212 98.8322ZM23.8891 89.7684V88.0146H19.6654L22.6468 91.0064L23.8891 89.7684ZM36.8941 89.7684V91.5223H38.6479V89.7684H36.8941ZM36.8941 83.1452H38.6479V81.3913H36.8941V83.1452ZM23.8888 83.1452L22.6464 81.9072L19.6651 84.899H23.8888V83.1452ZM32.9297 74.0725L34.172 75.3105L35.4056 74.0725L34.172 72.8346L32.9297 74.0725ZM28.2627 69.3892L29.505 68.1512L28.2627 66.9045L27.0204 68.1512L28.2627 69.3892ZM19.1246 78.5593H17.3708V82.804L20.367 79.7973L19.1246 78.5593ZM12.5245 67.5766H19.1246V64.0689H12.5245V67.5766ZM14.2784 78.364V65.8228H10.7707V78.364H14.2784ZM2.24105 70.5291L11.2822 79.602L13.7669 77.126L4.7257 68.0531L2.24105 70.5291ZM0.0587328 75.2124L4.7257 70.5291L2.24105 68.0531L-2.42592 72.7365L0.0587328 75.2124ZM9.19741 81.9072L0.0587328 72.7365L-2.42592 75.2124L6.71276 84.3832L9.19741 81.9072ZM-4.7373 84.899H7.95508V81.3913H-4.7373V84.899ZM-2.98346 89.7684V83.1452H-6.49115V89.7684H-2.98346ZM7.95471 88.0146H-4.7373V91.5223H7.95471V88.0146ZM0.0671997 100.168L9.19704 91.0064L6.71239 88.5304L-2.41745 97.6923L0.0671997 100.168ZM4.73417 102.376L0.0671997 97.6923L-2.41745 100.168L2.24952 104.852L4.73417 102.376ZM11.2822 93.3113L2.24952 102.376L4.73417 104.852L13.7669 95.7872L11.2822 93.3113ZM14.2784 107.6V94.5492H10.7707V107.6H14.2784ZM19.1246 105.846H12.5245V109.354H19.1246V105.846ZM17.3708 94.3539V107.6H20.8785V94.3539H17.3708ZM29.4966 102.278L20.367 93.1159L17.8823 95.5919L27.0119 104.754L29.4966 102.278ZM31.6789 97.5942L27.0119 102.278L29.4966 104.754L34.1635 100.07L31.6789 97.5942ZM22.6468 91.0064L31.6789 100.07L34.1635 97.5942L25.1314 88.5304L22.6468 91.0064ZM36.8941 88.0146H23.8891V91.5223H36.8941V88.0146ZM35.1402 83.1452V89.7684H38.6479V83.1452H35.1402ZM23.8888 84.899H36.8941V81.3913H23.8888V84.899ZM31.6873 72.8346L22.6464 81.9072L25.1311 84.3832L34.172 75.3105L31.6873 72.8346ZM27.0204 70.6272L31.6873 75.3105L34.172 72.8346L29.505 68.1512L27.0204 70.6272ZM20.367 79.7973L29.505 70.6272L27.0204 68.1512L17.8823 77.3213L20.367 79.7973ZM17.3708 65.8228V78.5593H20.8785V65.8228H17.3708Z" fill="#3F3007" mask="url(#path-7-inside-2_159_1748)"/>
</g>
<path d="M12.12 26.6V19.92H35.88V26.6H35C34.56 25.76 33.84 24.12 33.32 22.52C32.88 22 32.16 21.8 30.84 21.8H26.48C26.44 22.76 26.36 24.72 26.36 26.28V42.84C26.36 44 26.52 44.76 26.84 45.12C28.08 45.44 29.24 45.84 30.04 46.16V47H17.92V46.16C18.72 45.84 20.16 45.36 21.16 45.12C21.48 44.76 21.64 44 21.64 42.84V26.32C21.64 24.72 21.56 22.76 21.52 21.8H17.16C15.8 21.8 15.08 22 14.64 22.48C14.16 24.12 13.4 25.76 12.96 26.6H12.12ZM43.7919 21.52C43.7919 23 42.5919 24.24 41.0719 24.24C39.5119 24.24 38.2719 23.04 38.2719 21.56C38.2719 20.04 39.5519 18.8 41.0319 18.8C42.5519 18.8 43.7919 20.04 43.7919 21.52ZM43.6719 43.12C43.6719 44.36 43.8319 45 44.1119 45.36C44.9919 45.6 45.9519 45.92 46.6719 46.28V47H36.4719V46.28C37.0319 46 37.9119 45.72 38.8319 45.48C39.1519 45.2 39.3919 44.56 39.3919 43.16V33.72C39.3919 32.96 39.2719 32.36 39.0719 31.88C38.0319 31.76 37.1919 31.48 36.6719 31.24V30.64L43.0719 28.24H43.7519C43.7119 29.52 43.6719 31.4 43.6719 33.24V43.12ZM78.5991 43.12C78.5991 44.16 78.6791 44.92 79.1591 45.36C79.9191 45.6 80.8391 45.92 81.5591 46.28V47H71.7591V46.28C72.2791 46 72.9191 45.72 73.6791 45.48C74.0391 45.2 74.2391 44.56 74.2391 43.16V39.24C74.2391 38.12 74.2391 36.44 74.1591 35.04C73.9991 32.56 72.8391 31.08 70.1591 31.08C68.8791 31.08 67.6391 31.28 66.6391 32.4C66.7191 33.28 66.7591 34.52 66.7591 35.52V43.12C66.7591 44.04 66.8391 44.92 67.2791 45.36C67.9991 45.6 68.9191 45.92 69.5991 46.28V47H59.9591V46.28C60.5191 45.96 61.1191 45.72 61.9191 45.48C62.3191 45.08 62.4391 44.36 62.4391 43.16V39.32C62.4391 38.16 62.4391 36.12 62.3991 35C62.3191 32.48 61.4791 31.08 58.7991 31.08C57.3991 31.08 56.0391 31.28 54.9991 32.36V43.12C54.9991 44.32 55.1191 45 55.4791 45.4C56.1991 45.64 57.0391 45.96 57.6791 46.28V47H47.9591V46.28C48.5191 45.96 49.3591 45.68 50.2791 45.44C50.5991 45.04 50.7191 44.4 50.7191 43.16V34.28C50.7191 33.4 50.6391 32.76 50.4391 32.28C49.6391 32.12 48.7991 31.92 48.1991 31.68V31.04L54.2791 28.24H54.9591V31.24C56.5591 29.72 58.6791 28.24 61.2791 28.24C63.8791 28.24 65.7591 29.56 66.3991 31.44C67.9191 29.92 69.8791 28.24 72.6391 28.24C76.3591 28.24 78.5991 30.44 78.5991 34.4V43.12ZM87.4828 36.84C87.6028 42.36 90.0028 44.68 93.7628 44.68C95.2828 44.68 96.8428 44.4 99.6028 43.24L99.9228 44.56C96.7228 46.6 94.5228 47.4 91.3228 47.4C86.7628 47.4 83.0028 43.6 83.0028 38.12C83.0028 32.36 86.8828 28.24 92.4828 28.24C97.1628 28.24 99.6428 30.96 99.9228 36.32L99.4828 36.84H87.4828ZM95.4828 35.36C95.2428 31.84 93.8828 29.72 91.4428 29.72C89.0028 29.72 87.7228 31.76 87.4828 35.36H95.4828ZM108.71 35.28L112.27 36.32C115.67 37.32 117.03 38.72 117.03 41C117.03 45.48 111.39 47.44 107.63 47.44C105.87 47.44 103.75 46.8 102.35 46.04V40.92H103.15C103.51 41.56 103.87 42.4 104.07 43.2C104.31 43.6 104.59 43.84 105.07 44.08C106.47 44.8 108.59 45.32 110.23 45.32C112.39 45.32 113.47 44.4 113.47 42.8C113.47 41.32 112.43 40.6 110.83 40.12L107.23 39.04C104.11 38.12 102.47 36.44 102.47 34.16C102.47 30.16 107.19 28.24 110.67 28.24C112.39 28.24 114.87 28.68 116.11 29.36V34H115.23C114.83 33.4 114.39 32.64 114.11 31.88C113.83 31.48 113.47 31.24 112.95 31.04C111.63 30.48 109.87 30.16 108.75 30.16C106.79 30.16 105.99 30.92 105.99 32.52C105.99 33.76 106.87 34.72 108.71 35.28Z" fill="#3F3007"/>
<path d="M78.84 66.92H88.04V67.76C87.36 68.08 86.4 68.48 85.56 68.76C85 69.12 84.6 69.88 84.16 71.32L78.8 89.24C78.4 90.52 77.88 92.32 77.4 94.16H73.8C73.36 92.24 72.96 90.52 72.32 88.56L67.84 74.68L63.24 88.8C62.76 90.24 62.16 92.28 61.68 94.16H58.08C57.64 92.16 57.16 90.4 56.8 89.16L51.44 71.04C51.08 69.8 50.64 69 50.08 68.6C49.24 68.4 48.4 68.08 47.6 67.72V66.92H59.64V67.72C59 68 57.76 68.36 56.72 68.64C56.12 69.12 56.16 69.96 56.44 71L61.28 88.36L66.04 73.68C66.52 72.16 67.04 70.12 67.4 68.52H71.12C71.4 70.04 71.88 71.84 72.48 73.76L76.96 88.24L81.76 71.2C82.08 70.08 82.16 69.24 81.68 68.8C80.76 68.52 79.68 68.08 78.84 67.72V66.92ZM91.1391 83.84C91.2591 89.36 93.6591 91.68 97.4191 91.68C98.9391 91.68 100.499 91.4 103.259 90.24L103.579 91.56C100.379 93.6 98.1791 94.4 94.9791 94.4C90.4191 94.4 86.6591 90.6 86.6591 85.12C86.6591 79.36 90.5391 75.24 96.1391 75.24C100.819 75.24 103.299 77.96 103.579 83.32L103.139 83.84H91.1391ZM99.1391 82.36C98.8991 78.84 97.5391 76.72 95.0991 76.72C92.6591 76.72 91.3791 78.76 91.1391 82.36H99.1391ZM110.006 83.84C110.126 89.36 112.526 91.68 116.286 91.68C117.806 91.68 119.366 91.4 122.126 90.24L122.446 91.56C119.246 93.6 117.046 94.4 113.846 94.4C109.286 94.4 105.526 90.6 105.526 85.12C105.526 79.36 109.406 75.24 115.006 75.24C119.686 75.24 122.166 77.96 122.446 83.32L122.006 83.84H110.006ZM118.006 82.36C117.766 78.84 116.406 76.72 113.966 76.72C111.526 76.72 110.246 78.76 110.006 82.36H118.006ZM143.793 92.4C144.153 92.44 144.793 92.44 145.393 92.36L145.473 93.2C144.153 93.88 142.153 94.4 140.913 94.4C138.953 94.4 138.113 93.92 136.473 91.24L132.953 85.56L130.993 85.6V90.12C130.993 91.4 131.113 92 131.513 92.4C132.193 92.6 133.233 92.96 133.913 93.28V94H123.953V93.28C124.473 93 125.273 92.72 126.153 92.52C126.553 92.16 126.713 91.48 126.713 90.16V70.48C126.713 69.48 126.633 68.84 126.393 68.36C125.273 68.08 124.593 67.88 123.953 67.6V66.96L130.313 64.36H130.993V84.36L132.673 84L137.793 77.76C136.953 77.44 135.993 76.96 135.073 76.44V75.76H144.273V76.44C143.553 76.84 142.233 77.32 140.793 77.72C140.153 78.12 139.193 78.8 138.313 79.76L135.753 82.52L140.793 90.12C141.873 91.72 142.553 92.28 143.793 92.4Z" fill="#3F3007"/>
</svg>
