<?xml version="1.0" encoding="utf-8"?>
<!-- Generator: Adobe Illustrator 27.7.0, SVG Export Plug-In . SVG Version: 6.00 Build 0)  -->
<svg version="1.1" id="レイヤー_1" xmlns="http://www.w3.org/2000/svg" xmlns:xlink="http://www.w3.org/1999/xlink" x="0px"
	 y="0px" viewBox="0 0 110 110" style="enable-background:new 0 0 110 110;" xml:space="preserve">
<style type="text/css">
	.st0{fill:#FD5A46;}
	.st1{fill:#FCF9ED;}
	.st2{fill-rule:evenodd;clip-rule:evenodd;fill:#3F3007;}
	.st3{fill:#F0B101;}
</style>
<g>
	<path class="st0" d="M110,55c0,30.4-24.6,55-55,55S0,85.4,0,55S24.6,0,55,0S110,24.6,110,55z"/>
	<path class="st1" d="M72.6,75.2c0.7-0.5,1.6,0.2,1.3,0.9l-1.8,5.7c-0.1,0.3,0,0.5,0.1,0.8l3.5,4.8c0.5,0.7-0.2,1.6-0.9,1.3L69.3,87
		c-0.3-0.1-0.7,0-0.9,0.2L57.9,98.6c-0.7,0.7-1.9-0.1-1.4-1l7.4-13.6c0.2-0.3,0.1-0.7-0.1-0.9l-3.5-4.7c-0.5-0.7,0.2-1.6,0.9-1.3
		l5.7,1.8c0.3,0.1,0.5,0,0.8-0.1L72.6,75.2z"/>
	<path class="st2" d="M72,74.3c1.5-1.1,3.6,0.4,3,2.2l-1.7,5.6l3.5,4.7c1.1,1.5-0.4,3.6-2.2,3l-5.5-1.7L58.7,99.4
		c-1.6,1.7-4.3-0.2-3.2-2.3l7.3-13.4l-3.4-4.6c-1.1-1.5,0.4-3.6,2.2-3l5.6,1.7L72,74.3z M72.7,76.5l-4.2,3.1
		c-0.5,0.4-1.1,0.5-1.7,0.3l-5-1.6l3,4.1c0.4,0.6,0.5,1.4,0.1,2.1l-6.4,11.9l9.1-9.9c0.5-0.6,1.3-0.8,2-0.5l4.9,1.5l-3.1-4.2
		c-0.4-0.5-0.5-1.1-0.3-1.7L72.7,76.5z"/>
	<path class="st1" d="M28.1,38.3c0.3-1.3,2.1-1.4,2.6-0.2l3.6,8.8c0.2,0.4,0.5,0.7,0.9,0.8l9.3,2.3c1.3,0.3,1.4,2.1,0.2,2.6L36,56.2
		c-0.5,0.2-0.8,0.7-0.9,1.2l-1.3,24.6c-0.1,1.6-2.4,1.8-2.7,0.2l-4.7-24.2c-0.1-0.5-0.5-0.9-1-1.1l-9.1-2.3
		c-1.3-0.3-1.4-2.1-0.2-2.6l8.8-3.6c0.4-0.2,0.7-0.5,0.8-0.9L28.1,38.3z"/>
	<path class="st2" d="M27.1,38c0.6-2.3,3.8-2.5,4.7-0.3l3.6,8.8c0,0.1,0.1,0.1,0.2,0.2l9.3,2.3c2.3,0.6,2.5,3.8,0.3,4.7l-8.7,3.5
		c-0.1,0-0.2,0.1-0.2,0.2L35,82.1c-0.2,2.9-4.3,3.2-4.9,0.3l-4.7-24.2c0-0.1-0.1-0.2-0.2-0.2l-9.1-2.3c-2.3-0.6-2.5-3.8-0.3-4.7
		l8.8-3.6c0.1,0,0.1-0.1,0.2-0.2L27.1,38z M29.3,38.4c0,0-0.1,0.1-0.1,0.1l-2.3,9.3c-0.2,0.8-0.7,1.4-1.5,1.7l-8.8,3.6
		c-0.1,0-0.1,0.1-0.1,0.1c0,0,0,0.1,0,0.2c0,0.1,0,0.1,0.1,0.2c0,0,0.1,0.1,0.1,0.1l9.1,2.3c0.9,0.2,1.6,1,1.8,1.9l4.7,24.2
		c0,0.1,0.1,0.2,0.1,0.2c0,0,0.1,0.1,0.2,0c0.1,0,0.2,0,0.2-0.1c0,0,0.1-0.1,0.1-0.2l1.3-24.6c0.1-1,0.6-1.8,1.5-2.2l8.7-3.5
		c0.1,0,0.1-0.1,0.1-0.1c0,0,0-0.1,0-0.2c0-0.1,0-0.1-0.1-0.2c0,0-0.1-0.1-0.1-0.1L35,48.8c-0.8-0.2-1.4-0.7-1.7-1.5l-3.6-8.8
		c0-0.1-0.1-0.1-0.1-0.1c0,0-0.1,0-0.2,0C29.4,38.4,29.3,38.4,29.3,38.4z"/>
	<path class="st1" d="M67.7,15.1c1.1-1.7,3.7-0.9,3.8,1.1l0.6,14.5c0,0.7,0.4,1.3,0.9,1.6l12,8.2c1.7,1.1,0.9,3.7-1.1,3.8l-14.3,0.5
		c-0.8,0-1.5,0.5-1.8,1.3L53,80.8c-1,2.3-4.4,1.3-4-1.1l5.9-37.1c0.1-0.8-0.2-1.6-0.9-2.1l-11.8-8c-1.7-1.1-0.9-3.7,1.1-3.8L57.9,28
		c0.7,0,1.3-0.4,1.6-0.9L67.7,15.1z"/>
	<path class="st2" d="M66.8,14.5c1.7-2.5,5.7-1.4,5.8,1.7l0.6,14.5c0,0.3,0.2,0.6,0.4,0.8l12,8.2c2.5,1.7,1.4,5.7-1.7,5.8L69.7,46
		c-0.4,0-0.7,0.2-0.9,0.6L54.1,81.2c-1.5,3.5-6.7,2-6.1-1.7l5.9-37.1c0.1-0.4-0.1-0.8-0.4-1l-11.8-8c-2.5-1.7-1.4-5.7,1.7-5.8
		l14.5-0.6c0.3,0,0.6-0.2,0.8-0.4L66.8,14.5z M70.4,16.3c0-1-1.3-1.3-1.8-0.5l-8.2,12c-0.6,0.8-1.5,1.4-2.5,1.4l-14.5,0.6
		c-1,0-1.3,1.3-0.5,1.8l11.8,8c1,0.7,1.5,1.9,1.4,3.1l-5.9,37.1c-0.2,1.2,1.4,1.6,1.9,0.5l14.7-34.6c0.5-1.1,1.6-1.9,2.8-1.9
		l14.3-0.5c1,0,1.3-1.3,0.5-1.8l-12-8.2c-0.8-0.6-1.4-1.5-1.4-2.5L70.4,16.3z"/>
	<path class="st3" d="M91.3,30.2c0,1.5-1.2,2.8-2.8,2.8c-1.5,0-2.8-1.2-2.8-2.8s1.2-2.8,2.8-2.8C90.1,27.5,91.3,28.7,91.3,30.2z"/>
	<path class="st2" d="M93.5,30.2c0,2.7-2.2,5-5,5c-2.7,0-4.9-2.2-4.9-5c0-2.7,2.2-5,4.9-5C91.3,25.3,93.5,27.5,93.5,30.2z M88.5,33
		c1.5,0,2.8-1.2,2.8-2.8c0-1.5-1.2-2.8-2.8-2.8s-2.8,1.2-2.8,2.8C85.8,31.8,87,33,88.5,33z"/>
	<path class="st3" d="M19.8,75.4c0,1.5-1.2,2.8-2.8,2.8c-1.5,0-2.8-1.2-2.8-2.8s1.2-2.8,2.8-2.8C18.6,72.6,19.8,73.8,19.8,75.4z"/>
	<path class="st2" d="M22,75.3c0,2.7-2.2,4.9-4.9,4.9s-5-2.2-5-4.9s2.2-4.9,5-4.9S22,72.6,22,75.3z M17,78.1c1.5,0,2.8-1.2,2.8-2.8
		s-1.2-2.8-2.8-2.8c-1.5,0-2.8,1.2-2.8,2.8S15.5,78.1,17,78.1z"/>
	<path class="st3" d="M88,64.4c0,1.5-1.2,2.8-2.8,2.8s-2.8-1.2-2.8-2.8s1.2-2.7,2.8-2.7S88,62.8,88,64.4z"/>
	<path class="st2" d="M90.2,64.3c0,2.7-2.2,4.9-4.9,4.9c-2.7,0-5-2.2-5-4.9c0-2.7,2.2-5,5-5C88,59.4,90.2,61.6,90.2,64.3z
		 M85.2,67.1c1.5,0,2.8-1.2,2.8-2.8s-1.2-2.8-2.8-2.8s-2.8,1.2-2.8,2.8S83.7,67.1,85.2,67.1z"/>
</g>
</svg>
