<svg width="346" height="114" viewBox="0 0 346 114" fill="none" xmlns="http://www.w3.org/2000/svg">
<rect x="1.12308" y="1.12308" width="343.754" height="111.754" fill="#FCF9ED" stroke="#3F3007" stroke-width="1.75385"/>
<mask id="mask0_159_1765" style="mask-type:alpha" maskUnits="userSpaceOnUse" x="2" y="2" width="342" height="110">
<mask id="path-2-inside-1_159_1765" fill="white">
<path d="M2 2H344V112H2V2Z"/>
</mask>
<path d="M2 2H344V112H2V2Z" fill="#FCF9ED"/>
<path d="M2 3.75385H344V0.246154H2V3.75385ZM344 110.246H2V113.754H344V110.246Z" fill="#3F3007" mask="url(#path-2-inside-1_159_1765)"/>
</mask>
<g mask="url(#mask0_159_1765)">
<path d="M298.405 80.3165L315.052 88.2797L310.718 104.506L288.975 98.5285L292.448 88.5519L298.405 80.3165Z" fill="#225BA0"/>
<ellipse cx="310.793" cy="105.03" rx="47.809" ry="46.0493" transform="rotate(16.5916 310.793 105.03)" stroke="#3F3007" stroke-width="2"/>
<path fill-rule="evenodd" clip-rule="evenodd" d="M321.887 60.3323C321.915 60.3711 321.943 60.4099 321.97 60.4487C312.716 64.4867 304.53 70.6816 298.247 78.6065C292.978 75.0585 288.354 70.7882 284.484 65.9909C283.915 66.3441 283.353 66.7094 282.8 67.0865C286.797 72.0728 291.579 76.5103 297.03 80.196C293.015 85.6255 289.869 91.81 287.838 98.6233C285.808 105.437 285.057 112.335 285.446 119.077C279.048 119.175 272.791 120.215 266.866 122.097C267.132 122.713 267.412 123.324 267.705 123.928C273.411 122.139 279.435 121.156 285.594 121.073C286.479 130.745 289.706 140.043 294.863 148.245C295.774 148.575 296.701 148.881 297.643 149.162C298.29 149.354 298.937 149.533 299.585 149.698C308.415 145.657 316.227 139.631 322.275 132.002C327.567 135.565 332.208 139.857 336.088 144.679C336.667 144.34 337.239 143.988 337.803 143.624C333.79 138.596 328.98 134.123 323.492 130.413C327.507 124.983 330.654 118.799 332.684 111.985C334.714 105.172 335.465 98.2739 335.077 91.5321C341.885 91.4272 348.534 90.2565 354.794 88.1381C354.531 87.5225 354.255 86.9125 353.965 86.3083C347.921 88.3331 341.502 89.4472 334.928 89.5356C334.007 79.4645 330.546 69.7992 325.011 61.3547C325.07 61.3318 325.129 61.309 325.187 61.2863C324.775 61.1518 324.36 61.0221 323.942 60.8975C323.257 60.6937 322.572 60.5053 321.887 60.3323ZM297.396 148.481C306.444 144.6 314.448 138.598 320.588 130.905C315.788 127.89 310.487 125.462 304.763 123.756C299.039 122.051 293.274 121.182 287.606 121.078C288.535 130.877 291.949 140.281 297.396 148.481ZM330.767 111.414C332.739 104.796 333.462 98.0886 333.07 91.5321C327.161 91.4412 321.151 90.5456 315.188 88.7689C309.225 86.9922 303.704 84.4521 298.709 81.2941C294.793 86.5668 291.727 92.5758 289.755 99.1944C287.783 105.813 287.06 112.52 287.452 119.077C293.361 119.167 299.371 120.063 305.334 121.84C311.297 123.616 316.818 126.157 321.813 129.315C325.729 124.042 328.795 118.033 330.767 111.414ZM315.759 86.8522C321.483 88.5576 327.248 89.4262 332.916 89.5306C331.987 79.732 328.573 70.3279 323.126 62.1272C314.078 66.0091 306.074 72.011 299.934 79.7035C304.735 82.7182 310.035 85.1467 315.759 86.8522Z" fill="#3F3007"/>
<path d="M323.529 60.7747L297.231 149.039" stroke="#3F3007" stroke-width="2" stroke-linejoin="round"/>
<path d="M264.031 91.5295L355.668 118.833" stroke="#3F3007" stroke-width="2" stroke-linejoin="round"/>
<mask id="path-9-inside-2_159_1765" fill="white">
<path fill-rule="evenodd" clip-rule="evenodd" d="M36.3776 106.959C41.6071 109.059 46.4754 108.998 49.5773 106.285C55.3741 101.213 52.8069 88.7964 43.8433 78.551C34.8797 68.3056 22.9141 64.1113 17.1174 69.1828C14.0155 71.8966 13.3086 76.7136 14.6951 82.1758C9.4656 80.0758 4.59729 80.1364 1.4954 82.8502C-4.30134 87.9217 -1.73412 100.338 7.22944 110.584C16.193 120.829 28.1586 125.024 33.9553 119.952C37.0572 117.238 37.7642 112.421 36.3776 106.959Z"/>
</mask>
<path fill-rule="evenodd" clip-rule="evenodd" d="M36.3776 106.959C41.6071 109.059 46.4754 108.998 49.5773 106.285C55.3741 101.213 52.8069 88.7964 43.8433 78.551C34.8797 68.3056 22.9141 64.1113 17.1174 69.1828C14.0155 71.8966 13.3086 76.7136 14.6951 82.1758C9.4656 80.0758 4.59729 80.1364 1.4954 82.8502C-4.30134 87.9217 -1.73412 100.338 7.22944 110.584C16.193 120.829 28.1586 125.024 33.9553 119.952C37.0572 117.238 37.7642 112.421 36.3776 106.959Z" fill="#225BA0"/>
<path d="M36.3776 106.959L37.1229 105.103L33.4708 103.637L34.4391 107.451L36.3776 106.959ZM14.6951 82.1758L13.9498 84.0317L17.6019 85.4983L16.6336 81.6837L14.6951 82.1758ZM48.2604 104.779C45.9939 106.762 42.0624 107.087 37.1229 105.103L35.6323 108.815C41.1519 111.032 46.957 111.235 50.8943 107.79L48.2604 104.779ZM42.3381 79.8679C46.6353 84.7796 49.3311 90.1405 50.2869 94.763C51.2566 99.4534 50.3779 102.927 48.2604 104.779L50.8943 107.79C54.5735 104.571 55.3096 99.3003 54.204 93.9531C53.0844 88.538 50.0149 82.5678 45.3485 77.2341L42.3381 79.8679ZM18.4343 70.688C20.5518 68.8355 24.1112 68.4261 28.6312 70.0105C33.0857 71.5719 38.0409 74.9562 42.3381 79.8679L45.3485 77.2341C40.6822 71.9004 35.1727 68.0648 29.9544 66.2357C24.8015 64.4294 19.4797 64.4587 15.8005 67.6776L18.4343 70.688ZM16.6336 81.6837C15.324 76.5245 16.1678 72.671 18.4343 70.688L15.8005 67.6776C11.8632 71.1222 11.2932 76.9028 12.7566 82.6678L16.6336 81.6837ZM2.81231 84.3554C5.07881 82.3725 9.01033 82.0482 13.9498 84.0317L15.4404 80.3198C9.92086 78.1034 4.11578 77.9003 0.178485 81.345L2.81231 84.3554ZM8.73468 109.267C4.43748 104.355 1.7416 98.9944 0.785882 94.3719C-0.183887 89.6814 0.694798 86.208 2.81231 84.3554L0.178485 81.345C-3.50074 84.5639 -4.23682 89.8346 -3.13127 95.1818C-2.01168 100.597 1.05784 106.567 5.7242 111.901L8.73468 109.267ZM32.6384 118.447C30.5209 120.299 26.9615 120.709 22.4415 119.124C17.987 117.563 13.0319 114.179 8.73468 109.267L5.7242 111.901C10.3906 117.234 15.9 121.07 21.1184 122.899C26.2712 124.705 31.593 124.676 35.2722 121.457L32.6384 118.447ZM34.4391 107.451C35.7487 112.61 34.9049 116.464 32.6384 118.447L35.2722 121.457C39.2095 118.013 39.7796 112.232 38.3162 106.467L34.4391 107.451Z" fill="#3F3007" mask="url(#path-9-inside-2_159_1765)"/>
<path d="M300.893 10.2507L297.231 17.6478C296.923 18.2703 296.337 18.7095 295.653 18.8309L287.526 20.274C287.463 20.2853 287.436 20.308 287.421 20.3248C287.4 20.3471 287.381 20.3839 287.374 20.4321C287.367 20.4803 287.375 20.5211 287.389 20.5483C287.399 20.5687 287.418 20.5981 287.476 20.6267L294.736 24.2212C295.495 24.5967 295.969 25.3762 295.953 26.2225L295.554 47.5553C295.553 47.6095 295.562 47.6398 295.567 47.6536C295.573 47.6677 295.579 47.6777 295.587 47.6865C295.606 47.7066 295.649 47.735 295.715 47.7445C295.782 47.7539 295.83 47.7387 295.854 47.7246C295.865 47.7184 295.874 47.7108 295.883 47.6987C295.892 47.6869 295.909 47.6603 295.923 47.608L301.515 27.0176C301.737 26.2008 302.41 25.5853 303.243 25.4373L311.22 24.0209C311.283 24.0096 311.31 23.9869 311.326 23.9702C311.346 23.9478 311.366 23.9111 311.373 23.8628C311.38 23.8146 311.371 23.7738 311.358 23.7466C311.348 23.7263 311.328 23.6969 311.27 23.6683L303.873 20.006C303.25 19.6977 302.811 19.1121 302.69 18.4281L301.246 10.3011C301.235 10.2376 301.212 10.2105 301.195 10.1953C301.173 10.1749 301.136 10.1552 301.088 10.1483C301.04 10.1414 300.999 10.15 300.972 10.1633C300.951 10.1733 300.922 10.1929 300.893 10.2507Z" fill="#225BA0" stroke="#3F3007" stroke-width="2"/>
<path d="M275.913 20.7923L273.412 28.6579C273.201 29.3199 272.688 29.8425 272.031 30.066L264.215 32.7209C264.154 32.7416 264.131 32.7682 264.118 32.787C264.102 32.8122 264.088 32.8516 264.088 32.9003C264.089 32.949 264.103 32.988 264.121 33.0129C264.133 33.0315 264.157 33.0575 264.219 33.0771L271.939 35.5329C272.746 35.7895 273.332 36.4885 273.444 37.3274L276.275 58.4755C276.282 58.5292 276.295 58.5578 276.302 58.5707C276.31 58.5838 276.318 58.5927 276.327 58.6002C276.349 58.6172 276.395 58.6388 276.462 58.6381C276.529 58.6375 276.575 58.615 276.597 58.5975C276.606 58.5899 276.614 58.5809 276.621 58.5676C276.628 58.5546 276.641 58.5257 276.647 58.4719L279.062 37.2727C279.158 36.4317 279.731 35.7215 280.532 35.4493L288.203 32.8435C288.264 32.8228 288.287 32.7963 288.3 32.7774C288.316 32.7522 288.33 32.7129 288.33 32.6642C288.329 32.6155 288.315 32.5765 288.297 32.5516C288.285 32.533 288.261 32.5069 288.199 32.4874L280.333 29.9851C279.671 29.7745 279.149 29.262 278.925 28.6042L276.27 20.7888C276.249 20.7278 276.222 20.7044 276.203 20.6919C276.178 20.6751 276.139 20.6612 276.09 20.6617C276.042 20.6621 276.002 20.6768 275.978 20.6941C275.959 20.707 275.933 20.7309 275.913 20.7923Z" fill="#225BA0" stroke="#3F3007" stroke-width="2"/>
</g>
<path d="M41.6 42.88C42 43.96 42.44 44.88 43.2 45.32C44 45.56 44.72 45.8 45.6 46.16V47H33.64V46.16C34.48 45.84 35.44 45.56 36.4 45.36C37.08 44.84 37 44 36.6 42.88L34.6 37.4H25.8L23.88 42.72C23.44 43.96 23.48 44.76 24 45.16C24.84 45.4 25.68 45.76 26.6 46.16V47H17.48V46.16C18.24 45.76 19.12 45.4 19.84 45.16C20.48 44.8 20.96 44.08 21.4 42.84L28.24 24.4C28.72 23.12 29.36 21.28 29.92 19.56H33.36C33.88 21.6 34.52 23.36 34.96 24.52L41.6 42.88ZM30.16 25.12L26.44 35.56H33.96L30.16 25.12ZM59.4684 28.24C59.9484 28.24 60.7084 28.36 61.1484 28.64C61.2684 28.72 61.4284 28.92 61.4284 29.12C61.4284 30.12 60.5084 32.88 59.6284 32.88C59.2284 32.88 58.8684 32.8 58.2284 32.56C57.6684 32.36 56.6684 32.08 56.0684 32.08C54.7884 32.08 53.9084 32.72 53.1084 33.68V43.12C53.1084 44.16 53.1884 44.84 53.5484 45.32C54.3884 45.52 55.7884 45.88 56.6284 46.28V47H46.1884V46.28C46.7484 45.96 47.4284 45.68 48.3084 45.44C48.7084 45.12 48.8284 44.4 48.8284 43.16V34.12C48.8284 33.36 48.7484 32.76 48.5484 32.32C47.6284 32.16 46.6284 31.92 46.0284 31.64V31.04L52.0684 28.24H52.7484L53.0684 32.4C54.7484 30.4 56.8284 28.24 59.4684 28.24ZM66.5688 36.84C66.6888 42.36 69.0888 44.68 72.8488 44.68C74.3688 44.68 75.9288 44.4 78.6888 43.24L79.0088 44.56C75.8088 46.6 73.6088 47.4 70.4088 47.4C65.8488 47.4 62.0888 43.6 62.0888 38.12C62.0888 32.36 65.9688 28.24 71.5688 28.24C76.2488 28.24 78.7288 30.96 79.0088 36.32L78.5688 36.84H66.5688ZM74.5688 35.36C74.3288 31.84 72.9688 29.72 70.5288 29.72C68.0888 29.72 66.8088 31.76 66.5688 35.36H74.5688ZM98.3931 45.28C98.6731 45.32 99.4731 45.24 99.9131 45.24L99.9931 46.08C98.8731 46.8 96.9131 47.4 95.8331 47.4C93.6731 47.4 92.5131 45.88 92.2731 44.28C90.7931 46.04 88.5531 47.44 86.2331 47.44C83.3531 47.44 81.0731 45.36 81.0731 42.52C81.0731 40.8 81.6331 39.52 82.5931 38.76C84.0731 37.56 89.0331 36.32 92.0731 35.68V34.48C92.0731 32.28 90.7531 30.92 88.2331 30.92C86.5131 30.92 84.3531 31.6 82.3931 32.68L81.9531 30.96C84.6331 29.28 87.2331 28.24 89.8331 28.24C93.5531 28.24 96.3931 30.36 96.3931 33.96V42.84C96.3931 44.24 97.0331 45.2 98.3931 45.28ZM85.4731 41.48C85.4731 43.2 86.3131 44.8 88.2331 44.8C89.8731 44.8 91.1131 44.32 92.1131 43.08V37.4C90.2731 37.64 87.0331 38.24 86.2331 38.96C85.6331 39.52 85.4731 40.76 85.4731 41.48Z" fill="#3F3007"/>
<path d="M68.84 66.92H78.04V67.76C77.36 68.08 76.4 68.48 75.56 68.76C75 69.12 74.6 69.88 74.16 71.32L68.8 89.24C68.4 90.52 67.88 92.32 67.4 94.16H63.8C63.36 92.24 62.96 90.52 62.32 88.56L57.84 74.68L53.24 88.8C52.76 90.24 52.16 92.28 51.68 94.16H48.08C47.64 92.16 47.16 90.4 46.8 89.16L41.44 71.04C41.08 69.8 40.64 69 40.08 68.6C39.24 68.4 38.4 68.08 37.6 67.72V66.92H49.64V67.72C49 68 47.76 68.36 46.72 68.64C46.12 69.12 46.16 69.96 46.44 71L51.28 88.36L56.04 73.68C56.52 72.16 57.04 70.12 57.4 68.52H61.12C61.4 70.04 61.88 71.84 62.48 73.76L66.96 88.24L71.76 71.2C72.08 70.08 72.16 69.24 71.68 68.8C70.76 68.52 69.68 68.08 68.84 67.72V66.92ZM81.1391 83.84C81.2591 89.36 83.6591 91.68 87.4191 91.68C88.9391 91.68 90.4991 91.4 93.2591 90.24L93.5791 91.56C90.3791 93.6 88.1791 94.4 84.9791 94.4C80.4191 94.4 76.6591 90.6 76.6591 85.12C76.6591 79.36 80.5391 75.24 86.1391 75.24C90.8191 75.24 93.2991 77.96 93.5791 83.32L93.1391 83.84H81.1391ZM89.1391 82.36C88.8991 78.84 87.5391 76.72 85.0991 76.72C82.6591 76.72 81.3791 78.76 81.1391 82.36H89.1391ZM100.006 83.84C100.126 89.36 102.526 91.68 106.286 91.68C107.806 91.68 109.366 91.4 112.126 90.24L112.446 91.56C109.246 93.6 107.046 94.4 103.846 94.4C99.2863 94.4 95.5263 90.6 95.5263 85.12C95.5263 79.36 99.4062 75.24 105.006 75.24C109.686 75.24 112.166 77.96 112.446 83.32L112.006 83.84H100.006ZM108.006 82.36C107.766 78.84 106.406 76.72 103.966 76.72C101.526 76.72 100.246 78.76 100.006 82.36H108.006ZM133.793 92.4C134.153 92.44 134.793 92.44 135.393 92.36L135.473 93.2C134.153 93.88 132.153 94.4 130.913 94.4C128.953 94.4 128.113 93.92 126.473 91.24L122.953 85.56L120.993 85.6V90.12C120.993 91.4 121.113 92 121.513 92.4C122.193 92.6 123.233 92.96 123.913 93.28V94H113.953V93.28C114.473 93 115.273 92.72 116.153 92.52C116.553 92.16 116.713 91.48 116.713 90.16V70.48C116.713 69.48 116.633 68.84 116.393 68.36C115.273 68.08 114.593 67.88 113.953 67.6V66.96L120.313 64.36H120.993V84.36L122.673 84L127.793 77.76C126.953 77.44 125.993 76.96 125.073 76.44V75.76H134.273V76.44C133.553 76.84 132.233 77.32 130.793 77.72C130.153 78.12 129.193 78.8 128.313 79.76L125.753 82.52L130.793 90.12C131.873 91.72 132.553 92.28 133.793 92.4Z" fill="#3F3007"/>
</svg>
