<?xml version="1.0" encoding="utf-8"?>
<!-- Generator: Adobe Illustrator 27.7.0, SVG Export Plug-In . SVG Version: 6.00 Build 0)  -->
<svg version="1.1" id="レイヤー_1" xmlns="http://www.w3.org/2000/svg" xmlns:xlink="http://www.w3.org/1999/xlink" x="0px"
	 y="0px" viewBox="0 0 110 110" style="enable-background:new 0 0 110 110;" xml:space="preserve">
<style type="text/css">
	.st0{clip-path:url(#SVGID_00000008848257372879007970000008631496891922904740_);}
	.st1{clip-path:url(#SVGID_00000088133053641393476920000005899177056406636211_);fill:#A5A5A5;}
	.st2{clip-path:url(#SVGID_00000137843684543241853750000009956347006408014239_);fill:#FFFFFF;stroke:#404040;stroke-width:2.2;}
	
		.st3{clip-path:url(#SVGID_00000137843684543241853750000009956347006408014239_);fill-rule:evenodd;clip-rule:evenodd;fill:#404040;}
	
		.st4{clip-path:url(#SVGID_00000137843684543241853750000009956347006408014239_);fill:none;stroke:#404040;stroke-width:2.2;stroke-linejoin:round;}
</style>
<g>
	<defs>
		<circle id="SVGID_1_" cx="55" cy="55" r="55"/>
	</defs>
	<clipPath id="SVGID_00000075143466793511951380000014084580299281427099_">
		<use xlink:href="#SVGID_1_"  style="overflow:visible;"/>
	</clipPath>
	<g style="clip-path:url(#SVGID_00000075143466793511951380000014084580299281427099_);">
		<g>
			<defs>
				<rect id="SVGID_00000127031381316711438010000002836710805128693671_" y="0" width="110" height="110"/>
			</defs>
			<clipPath id="SVGID_00000054986794384327878390000010402283710936081074_">
				<use xlink:href="#SVGID_00000127031381316711438010000002836710805128693671_"  style="overflow:visible;"/>
			</clipPath>
			
				<circle style="clip-path:url(#SVGID_00000054986794384327878390000010402283710936081074_);fill:#A5A5A5;" cx="55" cy="55" r="55"/>
		</g>
		<g>
			<defs>
				<rect id="SVGID_00000027579078357520849420000016761103601167728558_" y="0" width="110" height="110"/>
			</defs>
			<clipPath id="SVGID_00000085953730908726480910000012090340984158229673_">
				<use xlink:href="#SVGID_00000027579078357520849420000016761103601167728558_"  style="overflow:visible;"/>
			</clipPath>
			
				<path style="clip-path:url(#SVGID_00000085953730908726480910000012090340984158229673_);fill:#FFFFFF;stroke:#404040;stroke-width:2.2;" d="
				M85.1,4.3l2.4,20.5c0.1,1.2,1,2.1,2.2,2.2l20.5,2.4c0.1,0,0.2,0.1,0.2,0.1s0.1,0.1,0.1,0.2s0,0.2-0.1,0.2c0,0-0.1,0.1-0.2,0.1
				l-20.5,2.4c-1.2,0.1-2.1,1-2.2,2.2l-2.4,20.5c0,0.1-0.1,0.2-0.1,0.2s-0.1,0.1-0.2,0.1s-0.2,0-0.2-0.1c0,0-0.1-0.1-0.1-0.2
				L82,34.7c-0.1-1.2-1-2.1-2.2-2.2l-20.5-2.4C59.1,30,59.1,30,59,30c0,0-0.1-0.1-0.1-0.2s0-0.2,0.1-0.2c0,0,0.1-0.1,0.2-0.1
				L79.8,27c1.2-0.1,2.1-1,2.2-2.2l2.4-20.5c0-0.1,0.1-0.2,0.1-0.2S84.6,4,84.7,4c0.1,0,0.2,0,0.3,0C85,4.1,85,4.1,85.1,4.3z"/>
			
				<circle style="clip-path:url(#SVGID_00000085953730908726480910000012090340984158229673_);fill:#FFFFFF;stroke:#404040;stroke-width:2.2;" cx="55.7" cy="55.1" r="35.3"/>
			
				<path style="clip-path:url(#SVGID_00000085953730908726480910000012090340984158229673_);fill-rule:evenodd;clip-rule:evenodd;fill:#404040;" d="
				M53.6,19.9C53.6,19.9,53.7,19.9,53.6,19.9C48.2,24.9,43.8,31,41,38c-4.3-1.4-8.3-3.5-11.9-6.1c-0.5,0.6-0.9,1.1-1.4,1.7
				c3.8,2.7,8,4.9,12.6,6.4c-1.6,4.8-2.5,10-2.5,15.3c0,5.4,0.9,10.5,2.5,15.3c-4.4,1.5-8.5,3.6-12.3,6.2c0.5,0.6,0.9,1.1,1.4,1.7
				C32.9,76,36.8,74,41,72.7c2.6,6.7,6.8,12.6,11.9,17.5c0.9,0.1,1.8,0.1,2.7,0.1c0.7,0,1.4,0,2-0.1c5.2-4.8,9.3-10.8,12-17.5
				c4.3,1.4,8.4,3.5,12,6.1c0.5-0.5,1-1.1,1.4-1.7c-3.8-2.8-8.1-5-12.7-6.5c1.6-4.8,2.5-10,2.5-15.3c0-5.4-0.9-10.5-2.5-15.3
				c4.7-1.6,9.1-3.9,13-6.7c-0.5-0.6-0.9-1.1-1.4-1.7c-3.7,2.7-7.9,4.9-12.3,6.4c-2.8-7-7.1-13.2-12.6-18.1l0.1-0.1
				c-0.5,0-1,0-1.5,0C55,19.8,54.3,19.8,53.6,19.9z M55.4,89.4c5.3-4.7,9.6-10.6,12.2-17.3c-3.9-1.1-8-1.7-12.2-1.7
				s-8.3,0.6-12.2,1.7C45.8,78.9,50.1,84.8,55.4,89.4z M70.8,55.4c0-5.1-0.9-10.1-2.4-14.7c-4.1,1.2-8.5,1.8-13,1.8s-8.9-0.6-13-1.8
				c-1.6,4.6-2.4,9.5-2.4,14.7c0,5.1,0.9,10.1,2.4,14.7c4.1-1.2,8.5-1.8,13-1.8s8.9,0.6,13,1.8C70,65.5,70.8,60.5,70.8,55.4z
				 M55.4,40.3c4.2,0,8.3-0.6,12.2-1.7C65,31.9,60.7,26,55.4,21.3c-5.3,4.7-9.6,10.6-12.2,17.3C47.1,39.7,51.2,40.3,55.4,40.3z"/>
			
				<path style="clip-path:url(#SVGID_00000085953730908726480910000012090340984158229673_);fill:none;stroke:#404040;stroke-width:2.2;stroke-linejoin:round;" d="
				M55.4,19.8v70.6"/>
			
				<path style="clip-path:url(#SVGID_00000085953730908726480910000012090340984158229673_);fill:none;stroke:#404040;stroke-width:2.2;stroke-linejoin:round;" d="
				M19.8,55.4h70.6"/>
			
				<path style="clip-path:url(#SVGID_00000085953730908726480910000012090340984158229673_);fill:#FFFFFF;stroke:#404040;stroke-width:2.2;" d="
				M30.1,59.3l2.4,20.5c0.1,1.2,1,2.1,2.2,2.2l20.5,2.4c0.1,0,0.2,0.1,0.2,0.1s0.1,0.1,0.1,0.2s0,0.2-0.1,0.2c0,0-0.1,0.1-0.2,0.1
				l-20.5,2.4c-1.2,0.1-2.1,1-2.2,2.2l-2.4,20.5c0,0.1-0.1,0.2-0.1,0.2s-0.1,0.1-0.2,0.1s-0.2,0-0.2-0.1c0,0-0.1-0.1-0.1-0.2
				L27,89.7c-0.1-1.2-1-2.1-2.2-2.2L4.3,85.1C4.1,85,4.1,85,4,85c0,0-0.1-0.1-0.1-0.2s0-0.2,0.1-0.2c0,0,0.1-0.1,0.2-0.1L24.8,82
				c1.2-0.1,2.1-1,2.2-2.2l2.4-20.5c0-0.1,0.1-0.2,0.1-0.2s0.1-0.1,0.2-0.1s0.2,0,0.2,0.1C30,59.1,30,59.1,30.1,59.3z"/>
		</g>
	</g>
</g>
</svg>
