<svg width="139" height="24" viewBox="0 0 139 24" fill="none" xmlns="http://www.w3.org/2000/svg">
<path d="M11.49 3.35C10.68 3.83 10.05 4.16 9.39 4.37C9.15 4.76 9.09 5.15 9.09 6.2V19.49C9.09 20.54 9.15 20.93 9.36 21.29C10.05 21.56 10.71 21.89 11.49 22.34V23H0.66V22.34C1.53 21.83 2.04 21.56 2.82 21.29C3.03 20.93 3.09 20.51 3.09 19.49V6.2C3.09 5.15 3 4.76 2.76 4.37C2.1 4.13 1.5 3.83 0.69 3.35V2.69H11.49V3.35ZM32.197 20.9C30.037 22.52 28.297 23.33 25.927 23.33C22.057 23.33 19.087 20.54 19.087 16.61C19.087 11.51 23.347 8.69 28.117 8.69C29.557 8.69 31.087 9.32 31.837 10.43C32.017 10.67 32.167 10.91 32.167 11.15C32.167 11.66 30.037 13.88 29.527 13.88C29.287 13.88 28.897 13.61 28.237 12.89C26.887 11.39 26.227 10.64 25.597 10.64C24.997 10.64 24.667 13.01 24.667 14.75C24.667 17.51 25.537 20.6 28.837 20.6C29.827 20.6 30.967 20.18 31.867 19.79L32.197 20.9ZM48.6387 19.52C48.6387 20.87 48.6987 21.23 48.9687 21.59C49.5087 21.83 50.0187 22.16 50.3487 22.4V23H41.7387V22.4C42.0087 22.16 42.4287 21.83 42.8187 21.59C43.0887 21.14 43.1187 20.66 43.1187 19.52V17.21C43.1187 16.4 43.0887 15.14 43.0587 14.66C42.9387 12.86 42.2787 11.84 40.7487 11.84C40.1787 11.84 39.8187 11.96 39.5787 12.08V19.52C39.5787 20.9 39.6087 21.2 39.7887 21.59C40.1487 21.83 40.6287 22.16 40.9287 22.4V23H32.3787V22.4C32.7087 22.16 33.2487 21.83 33.7887 21.56C34.0887 21.11 34.1187 20.66 34.1187 19.52V6.95C34.1187 5.84 34.0587 5.12 33.8787 4.7C33.2787 4.55 32.6487 4.37 32.1087 4.16V3.56L38.9787 0.769998H39.5787V11.03C41.5587 9.41 42.9087 8.69 43.9287 8.69C47.2287 8.69 48.6387 10.49 48.6387 13.13V19.52ZM58.2157 3.77C58.2157 5.45 56.8357 6.8 55.1557 6.8C53.4157 6.8 52.0657 5.48 52.0657 3.8C52.0657 2.12 53.4457 0.8 55.1857 0.8C56.8957 0.8 58.2157 2.12 58.2157 3.77ZM58.2457 19.52C58.2457 20.57 58.2757 21.05 58.4257 21.47C59.1457 21.77 59.7457 22.1 60.2257 22.4V23H50.8057V22.4C51.2857 22.1 51.7957 21.8 52.4857 21.53C52.7557 21.08 52.7857 20.63 52.7857 19.52V14.09C52.7857 13.31 52.7257 12.74 52.5457 12.35C51.9757 12.17 51.4057 11.96 50.9257 11.75V11.21L57.7657 8.69H58.3657C58.2757 10.25 58.2457 11.81 58.2457 13.61V19.52ZM67.4044 19.04C67.4044 19.91 67.6444 20.63 68.3044 20.9C68.6044 21.02 69.2044 21.11 70.1044 21.2V21.92C68.5144 22.79 66.8944 23.33 65.4544 23.33C63.4144 23.33 61.9444 21.8 61.9444 19.94V6.65C61.9444 5.78 61.9144 5.18 61.7644 4.79C61.1044 4.61 60.4144 4.37 59.8144 4.16V3.56L66.7444 0.769998H67.4044V19.04ZM77.043 19.04C77.043 19.91 77.283 20.63 77.943 20.9C78.243 21.02 78.843 21.11 79.743 21.2V21.92C78.153 22.79 76.533 23.33 75.093 23.33C73.053 23.33 71.583 21.8 71.583 19.94V6.65C71.583 5.78 71.553 5.18 71.403 4.79C70.743 4.61 70.053 4.37 69.453 4.16V3.56L76.383 0.769998H77.043V19.04ZM85.4588 15.77C85.6988 18.71 87.0788 20.3 89.5388 20.3C90.6488 20.3 92.0288 19.88 93.6188 19.34L93.9488 20.45C91.5488 22.31 89.3288 23.33 86.2688 23.33C82.5488 23.33 79.8488 20.42 79.8488 16.25C79.8488 11.66 83.3588 8.69 87.5888 8.69C91.5488 8.69 93.6188 10.49 93.9488 15.14L93.4688 15.77H85.4588ZM88.6688 14.36C88.4588 11.6 87.8888 10.07 86.7188 10.07C85.6988 10.07 85.3688 11.15 85.3388 14.36H88.6688ZM110.052 19.19C110.052 20.06 110.322 20.72 110.982 20.96C111.222 21.05 111.732 21.14 112.542 21.23V21.95C111.102 22.64 109.302 23.33 108.162 23.33C106.482 23.33 105.192 22.37 104.862 21.35C103.092 22.61 101.682 23.33 100.812 23.33C96.8824 23.33 95.1124 19.79 95.1124 16.94C95.1124 11.87 99.6724 9.02 104.592 8.72V6.65C104.592 5.78 104.562 5.18 104.412 4.79C103.662 4.61 102.912 4.4 102.222 4.16V3.56L109.452 0.769998H110.052V19.19ZM101.922 10.52C101.352 10.52 100.692 12.17 100.692 15.08C100.692 18.41 101.952 20.66 103.902 20.66C104.142 20.66 104.382 20.57 104.592 20.42V12.05C103.752 11.09 102.642 10.52 101.922 10.52ZM119.769 20.21C119.769 21.86 118.419 23.21 116.769 23.21C115.119 23.21 113.769 21.86 113.769 20.21C113.769 18.56 115.119 17.21 116.769 17.21C118.419 17.21 119.769 18.56 119.769 20.21ZM129.027 20.21C129.027 21.86 127.677 23.21 126.027 23.21C124.377 23.21 123.027 21.86 123.027 20.21C123.027 18.56 124.377 17.21 126.027 17.21C127.677 17.21 129.027 18.56 129.027 20.21ZM138.285 20.21C138.285 21.86 136.935 23.21 135.285 23.21C133.635 23.21 132.285 21.86 132.285 20.21C132.285 18.56 133.635 17.21 135.285 17.21C136.935 17.21 138.285 18.56 138.285 20.21Z" fill="#3F3007"/>
</svg>
