<svg width="267" height="31" viewBox="0 0 267 31" fill="none" xmlns="http://www.w3.org/2000/svg">
<path d="M33.3181 2.92H43.6781V3.8C42.9181 4.32 41.9181 4.92 40.9181 5.32C40.4781 5.8 40.1181 6.6 39.6781 8.08L34.8381 24.24C34.2381 26.2 33.7581 28.08 33.2781 30.2H26.6781C26.1981 28.12 25.7181 26.12 25.1981 24.24L22.1581 13L18.6381 24.24C18.0381 26.2 17.5181 28.08 16.9581 30.2H10.4781L4.95813 7.96C4.67813 6.84 4.27813 5.92 3.79813 5.36C2.83813 5.04 1.51813 4.32 0.678125 3.8V2.92H17.5581V3.8C16.3581 4.36 14.5581 5.16 13.3981 5.4C13.0381 6.04 13.1581 6.96 13.3581 7.92L16.5181 22.56L20.3581 9.76C20.7581 8.4 21.3581 6.08 21.7981 4.04H28.3581C28.7981 6.04 29.3181 8.2 29.7181 9.84L32.7181 22.32L36.6381 8.08C36.9981 6.84 37.1581 5.92 36.9581 5.36C35.9181 5.04 34.3581 4.32 33.3181 3.8V2.92ZM48.5778 20.36C48.8978 24.28 50.7378 26.4 54.0178 26.4C55.4978 26.4 57.3378 25.84 59.4578 25.12L59.8978 26.6C56.6978 29.08 53.7378 30.44 49.6578 30.44C44.6978 30.44 41.0978 26.56 41.0978 21C41.0978 14.88 45.7778 10.92 51.4178 10.92C56.6978 10.92 59.4578 13.32 59.8978 19.52L59.2578 20.36H48.5778ZM52.8578 18.48C52.5778 14.8 51.8178 12.76 50.2578 12.76C48.8978 12.76 48.4578 14.2 48.4178 18.48H52.8578ZM70.1694 24.72C70.1694 25.88 70.4894 26.84 71.3694 27.2C71.7694 27.36 72.5694 27.48 73.7694 27.6V28.56C71.6494 29.72 69.4894 30.44 67.5694 30.44C64.8494 30.44 62.8894 28.4 62.8894 25.92V8.2C62.8894 7.04 62.8494 6.24 62.6494 5.72C61.7694 5.48 60.8494 5.16 60.0494 4.88V4.08L69.2894 0.359998H70.1694V24.72ZM91.3903 27.2C88.5103 29.36 86.1903 30.44 83.0303 30.44C77.8703 30.44 73.9103 26.72 73.9103 21.48C73.9103 14.68 79.5903 10.92 85.9503 10.92C87.8703 10.92 89.9103 11.76 90.9103 13.24C91.1503 13.56 91.3503 13.88 91.3503 14.2C91.3503 14.88 88.5103 17.84 87.8303 17.84C87.5103 17.84 86.9903 17.48 86.1103 16.52C84.3103 14.52 83.4303 13.52 82.5903 13.52C81.7903 13.52 81.3503 16.68 81.3503 19C81.3503 22.68 82.5103 26.8 86.9103 26.8C88.2303 26.8 89.7503 26.24 90.9503 25.72L91.3903 27.2ZM112.476 20.64C112.476 26.44 108.236 30.44 102.156 30.44C95.8763 30.44 91.9963 26.72 91.9963 20.64C91.9963 15.04 96.3563 10.92 102.196 10.92C108.636 10.92 112.476 14.56 112.476 20.64ZM99.6363 20.64C99.6363 24.52 100.316 28.64 102.396 28.64C104.356 28.64 104.796 24.92 104.796 21C104.796 17.12 104.316 12.72 102.236 12.72C100.076 12.72 99.6363 16.52 99.6363 20.64ZM147.585 25.4C147.585 26.92 147.745 27.52 148.105 28.12C148.865 28.48 149.505 28.88 149.945 29.2V30H138.465V29.2C138.825 28.88 139.305 28.52 139.865 28.2C140.185 27.56 140.225 26.96 140.225 25.4V22.28C140.225 21.32 140.225 20 140.145 18.88C139.985 16.48 139.105 15.12 137.065 15.12C136.185 15.12 135.665 15.32 135.345 15.52C135.425 16 135.465 16.72 135.465 18.12V25.4C135.465 26.92 135.505 27.52 135.865 28.16C136.465 28.48 136.985 28.88 137.345 29.2V30H126.385V29.2C126.785 28.88 127.265 28.52 127.825 28.16C128.145 27.56 128.185 26.92 128.185 25.4V22.28C128.185 21.32 128.185 20 128.105 18.88C127.945 16.48 127.025 15.12 124.985 15.12C124.265 15.12 123.785 15.24 123.465 15.4V25.4C123.465 27.2 123.505 27.76 123.745 28.16C124.305 28.52 124.905 28.92 125.265 29.2V30H113.865V29.2C114.225 28.96 114.985 28.48 115.745 28.12C116.105 27.6 116.185 27.08 116.185 25.4V18.88C116.185 17.36 116.145 16.76 115.865 16.16C115.225 15.96 114.545 15.72 113.985 15.48V14.68L122.465 10.92H123.265V14.16C125.985 11.92 127.825 10.92 129.225 10.92C132.465 10.92 134.345 12.24 135.065 14.4C137.945 12 139.865 10.92 141.305 10.92C145.705 10.92 147.585 13.32 147.585 16.84V25.4ZM158.539 20.36C158.859 24.28 160.699 26.4 163.979 26.4C165.459 26.4 167.299 25.84 169.419 25.12L169.859 26.6C166.659 29.08 163.699 30.44 159.619 30.44C154.659 30.44 151.059 26.56 151.059 21C151.059 14.88 155.739 10.92 161.379 10.92C166.659 10.92 169.419 13.32 169.859 19.52L169.219 20.36H158.539ZM162.819 18.48C162.539 14.8 161.779 12.76 160.219 12.76C158.859 12.76 158.419 14.2 158.379 18.48H162.819ZM188.769 13.32C190.929 11.76 192.689 10.92 193.809 10.92C199.049 10.92 201.409 15.56 201.409 19.36C201.409 26.52 194.569 30.44 187.969 30.44C186.409 30.44 184.569 30.04 181.329 28.96C181.449 24.96 181.489 21 181.489 17V8.6C181.489 7.16 181.409 6.2 181.169 5.64C180.369 5.44 179.529 5.16 178.809 4.88V4.08L187.969 0.359998H188.769V13.32ZM188.929 26.4C190.049 27.44 191.369 28 192.329 28C193.089 28 193.969 25.8 193.969 21.92C193.969 17.48 192.289 14.48 189.689 14.48C189.409 14.48 189.089 14.56 188.769 14.72V19C188.769 22.68 188.809 24.52 188.929 26.4ZM220.81 24.96C220.81 26.12 221.17 27 222.05 27.32C222.37 27.44 223.05 27.56 224.13 27.68V28.64C222.29 29.6 219.73 30.4 218.21 30.4C216.09 30.4 214.41 29.24 213.93 27.52C212.45 29.24 210.81 30.44 208.25 30.44C205.21 30.44 202.93 28.2 202.93 25.16C202.93 23.36 203.49 21.88 205.05 20.92C206.05 20.32 209.25 19.36 213.49 18.4C213.41 16 212.41 14.76 209.85 14.76C208.09 14.76 206.05 15.4 204.41 16L203.97 14.16C206.89 12.36 210.45 10.92 213.09 10.92C217.05 10.92 220.81 12.48 220.81 16.68V24.96ZM210.33 23.32C210.33 24.76 210.73 26.76 212.53 26.76C212.93 26.76 213.29 26.6 213.61 26.36V20.56C212.37 20.64 211.29 20.8 211.01 21.04C210.45 21.52 210.33 22.6 210.33 23.32ZM241.781 27.2C238.901 29.36 236.581 30.44 233.421 30.44C228.261 30.44 224.301 26.72 224.301 21.48C224.301 14.68 229.981 10.92 236.341 10.92C238.261 10.92 240.301 11.76 241.301 13.24C241.541 13.56 241.741 13.88 241.741 14.2C241.741 14.88 238.901 17.84 238.221 17.84C237.901 17.84 237.381 17.48 236.501 16.52C234.701 14.52 233.821 13.52 232.981 13.52C232.181 13.52 231.741 16.68 231.741 19C231.741 22.68 232.901 26.8 237.301 26.8C238.621 26.8 240.141 26.24 241.341 25.72L241.781 27.2ZM264.423 27.4C265.023 27.68 265.663 27.8 266.543 27.84L266.583 28.8C263.583 29.92 261.943 30.44 259.863 30.44C257.823 30.44 256.223 29.72 255.063 27L252.903 21.92L251.623 21.84V25.36C251.623 27.08 251.663 27.56 251.863 28.04C252.623 28.4 253.583 28.92 254.023 29.2V30H242.023V29.2C242.463 28.88 243.183 28.44 243.903 28.08C244.303 27.48 244.343 26.88 244.343 25.36V8.6C244.343 7.12 244.263 6.16 244.023 5.6C243.263 5.4 242.383 5.16 241.663 4.88V4.08L250.823 0.359998H251.623V20.28L253.103 20L257.543 14.04C256.743 13.64 255.743 13.08 254.543 12.36V11.48H265.583V12.36C264.423 12.92 262.983 13.52 261.063 14C260.423 14.4 259.743 15 259.063 15.8L258.063 16.92L262.583 25.52C263.063 26.44 263.583 27 264.423 27.4Z" fill="#3F3007"/>
</svg>
