<?xml version="1.0" encoding="utf-8"?>
<!-- Generator: Adobe Illustrator 27.7.0, SVG Export Plug-In . SVG Version: 6.00 Build 0)  -->
<svg version="1.1" id="レイヤー_1" xmlns="http://www.w3.org/2000/svg" xmlns:xlink="http://www.w3.org/1999/xlink" x="0px"
	 y="0px" viewBox="0 0 110 110" style="enable-background:new 0 0 110 110;" xml:space="preserve">
<style type="text/css">
	.st0{fill:#FCF9ED;}
	.st1{fill-rule:evenodd;clip-rule:evenodd;fill:#00995E;}
	.st2{fill:#3F3007;}
	.st3{fill:#00995E;stroke:#3F3007;stroke-width:2.2;}
	.st4{fill:none;stroke:#3F3007;stroke-width:2.2;}
	.st5{fill:#F0B101;stroke:#3F3007;stroke-width:2.2;}
</style>
<g>
	<circle class="st0" cx="55" cy="55" r="55"/>
	<path class="st1" d="M67.5,24.2H42.9v24.2h24.6V24.2z M62.1,29H47.5v14.5h14.6V29z"/>
	<path class="st2" d="M42.9,24.2v-1.1h-1.1v1.1H42.9z M67.5,24.2h1.1v-1.1h-1.1V24.2z M42.9,48.4h-1.1v1.1h1.1V48.4z M67.5,48.4v1.1
		h1.1v-1.1H67.5z M47.5,29v-1.1h-1.1V29H47.5z M62.1,29h1.1v-1.1h-1.1V29z M47.5,43.6h-1.1v1.1h1.1V43.6z M62.1,43.6v1.1h1.1v-1.1
		H62.1z M42.9,25.3h24.6v-2.2H42.9V25.3z M44,48.4V24.2h-2.2v24.2H44z M67.5,47.3H42.9v2.2h24.6V47.3z M66.4,24.2v24.2h2.2V24.2
		H66.4z M47.5,30.1h14.6v-2.2H47.5V30.1z M48.6,43.6V29h-2.2v14.5L48.6,43.6L48.6,43.6z M62.1,42.5H47.5v2.2h14.6V42.5z M61,29v14.5
		h2.2V29H61z"/>
	<rect x="32" y="33.1" class="st3" width="46" height="54.1"/>
	<rect x="38.5" y="61.6" class="st3" width="33" height="18.7"/>
	<rect x="23.1" y="57.3" class="st3" width="8.9" height="24.2"/>
	<rect x="78" y="57.3" class="st3" width="8.9" height="24.2"/>
	<path class="st4" d="M42.5,48.4h25"/>
	<path class="st4" d="M63.5,51.7v-3.2"/>
	<path class="st5" d="M79.5,17.1c0.3-0.5,1.1-0.3,1.2,0.3l0.2,4.4c0,0.2,0.1,0.4,0.3,0.5l3.7,2.5c0.5,0.3,0.3,1.1-0.3,1.2l-4.3,0.2
		c-0.2,0-0.5,0.2-0.6,0.4L75,37.1c-0.3,0.7-1.3,0.4-1.2-0.3l1.8-11.3c0-0.2-0.1-0.5-0.3-0.6l-3.6-2.4c-0.5-0.3-0.3-1.1,0.3-1.2
		l4.4-0.2c0.2,0,0.4-0.1,0.5-0.3L79.5,17.1z"/>
	<path class="st5" d="M89,34.9c0.5-0.3,1.2,0.2,1,0.7l-1.5,4.2c-0.1,0.2,0,0.4,0.1,0.6L91,44c0.3,0.5-0.2,1.2-0.7,1l-4.1-1.5
		c-0.2-0.1-0.5,0-0.7,0.1l-8.1,8.1c-0.5,0.5-1.4-0.1-1-0.8l5.9-9.8c0.1-0.2,0.1-0.5,0-0.7l-2.4-3.6c-0.3-0.5,0.2-1.2,0.7-1l4.2,1.5
		c0.2,0.1,0.4,0,0.6-0.1L89,34.9z"/>
</g>
</svg>
