<svg width="100" height="100" viewBox="0 0 100 100" fill="none" xmlns="http://www.w3.org/2000/svg">
<circle cx="50" cy="50" r="50" fill="#FCF9ED"/>
<mask id="mask0_140_1222" style="mask-type:alpha" maskUnits="userSpaceOnUse" x="0" y="0" width="100" height="100">
<circle cx="50" cy="50" r="49" fill="#FCF9ED" stroke="#3F3007" stroke-width="2"/>
</mask>
<g mask="url(#mask0_140_1222)">
</g>
<path d="M25.7081 33.5293H24.0283V24.1701H33.3875V25.8499H25.7081V33.5293Z" fill="#3F3007"/>
<path d="M33.3875 75.8298H24.0283V66.4706H25.7081V74.1501H33.3875V75.8298Z" fill="#3F3007"/>
<path d="M75.9725 33.5292H74.2927V25.8498H66.6133V24.17H75.9725V33.5292Z" fill="#3F3007"/>
<path d="M75.9725 75.8298H66.6133V74.1501H74.2927V66.4706H75.9725V75.8298Z" fill="#3F3007"/>
<path d="M38.6216 39.3642L26.9751 51.0107L38.6216 62.6573L50.2682 51.0107L38.6216 39.3642Z" fill="#F0B101"/>
<path d="M38.6224 63.8451L25.7881 51.0108L38.6224 38.1765L51.4568 51.0108L38.6224 63.8451ZM28.1637 51.0108L38.6224 61.4696L49.0812 51.0108L38.6224 40.552L28.1637 51.0108Z" fill="#3F3007"/>
<path d="M50.2686 27.7176L38.6221 39.3641L50.2686 51.0107L61.9152 39.3641L50.2686 27.7176Z" fill="#F0B101"/>
<path d="M50.2684 52.1985L37.4341 39.3642L50.2684 26.5298L63.1027 39.3642L50.2684 52.1985ZM39.8097 39.3642L50.2684 49.823L60.7271 39.3642L50.2684 28.9054L39.8097 39.3642Z" fill="#3F3007"/>
<path d="M50.2686 51.0107L38.6221 62.6572L50.2686 74.3038L61.9152 62.6572L50.2686 51.0107Z" fill="#F0B101"/>
<path d="M50.2684 75.4916L37.4341 62.6573L50.2684 49.8229L63.1027 62.6573L50.2684 75.4916ZM39.8097 62.6573L50.2684 73.116L60.7271 62.6573L50.2684 52.1985L39.8097 62.6573Z" fill="#3F3007"/>
<path d="M68.0436 44.6415C72.485 44.7678 73.6269 47.7611 70.5757 50.7544C73.6269 53.7477 72.485 56.741 68.0436 56.8674C67.9173 61.3087 64.924 62.4506 61.9307 59.3994C58.9374 62.4506 55.944 61.3087 55.8177 56.8674C51.3764 56.741 50.2345 53.7477 53.2857 50.7544C50.2345 47.7611 51.3764 44.7678 55.8177 44.6415C55.944 40.2001 58.9374 39.0582 61.9307 42.1094C64.924 39.0582 67.9173 40.2001 68.0436 44.6415Z" fill="#225BA0"/>
<path d="M58.6797 61.951C58.2765 61.951 57.8853 61.8792 57.5128 61.7331C56.1361 61.1933 55.2519 59.7264 55.0291 57.6557C52.9584 57.4329 51.4916 56.5487 50.9517 55.1721C50.4274 53.8349 50.8599 52.2552 52.1373 50.7544C50.8599 49.2535 50.4274 47.6738 50.9517 46.3366C51.4916 44.9599 52.9584 44.0757 55.0291 43.8529C55.2519 41.7823 56.1361 40.3154 57.5128 39.7756C58.85 39.2514 60.4297 39.6838 61.9305 40.9611C63.4313 39.6838 65.0109 39.2511 66.3482 39.7756C67.7249 40.3154 68.6092 41.7823 68.8319 43.8529C70.9026 44.0757 72.3694 44.9599 72.9092 46.3366C73.4336 47.6738 73.0011 49.2535 71.7237 50.7544C73.0011 52.2552 73.4336 53.8349 72.9093 55.172C72.3694 56.5487 70.9026 57.4329 68.8319 57.6557C68.6092 59.7264 67.7249 61.1932 66.3482 61.7331C65.011 62.2574 63.4313 61.8249 61.9305 60.5476C60.8478 61.4691 59.7238 61.9509 58.6797 61.951ZM61.9305 58.2001L62.5301 58.8112C63.6901 59.9936 64.8882 60.5013 65.735 60.1692C66.6053 59.828 67.1544 58.5847 67.2039 56.8435L67.2264 56.0503L68.0196 56.0278C69.7609 55.9782 71.0042 55.4291 71.3454 54.5588C71.6775 53.712 71.1698 52.5139 69.9874 51.3539L69.3762 50.7544L69.9874 50.1549C71.1698 48.9948 71.6775 47.7966 71.3454 46.9498C71.0042 46.0795 69.7609 45.5304 68.0196 45.4809L67.2264 45.4584L67.2039 44.6652C67.1544 42.924 66.6053 41.6807 65.735 41.3394C64.8882 41.0073 63.69 41.515 62.5301 42.6975L61.9305 43.3086L61.331 42.6975C60.171 41.515 58.9728 41.0075 58.126 41.3394C57.2557 41.6807 56.7066 42.924 56.6571 44.6652L56.6345 45.4584L55.8414 45.4809C54.1001 45.5304 52.8568 46.0795 52.5156 46.9498C52.1835 47.7966 52.6912 48.9948 53.8737 50.1549L54.4848 50.7544L53.8737 51.3539C52.6912 52.5139 52.1835 53.712 52.5156 54.5588C52.8568 55.4291 54.1001 55.9782 55.8414 56.0278L56.6345 56.0503L56.6571 56.8435C56.7066 58.5847 57.2557 59.828 58.126 60.1692C58.9728 60.5014 60.171 59.9936 61.331 58.8112L61.9305 58.2001Z" fill="#3F3007"/>
</svg>
