<?xml version="1.0" encoding="utf-8"?>
<!-- Generator: Adobe Illustrator 27.7.0, SVG Export Plug-In . SVG Version: 6.00 Build 0)  -->
<svg version="1.1" id="レイヤー_1" xmlns="http://www.w3.org/2000/svg" xmlns:xlink="http://www.w3.org/1999/xlink" x="0px"
	 y="0px" viewBox="0 0 110 110" style="enable-background:new 0 0 110 110;" xml:space="preserve">
<style type="text/css">
	.st0{clip-path:url(#SVGID_00000065790640723639035100000015487940242663668366_);fill:#FCF9ED;}
	.st1{clip-path:url(#SVGID_00000065790640723639035100000015487940242663668366_);fill:none;stroke:#3F3007;stroke-width:2.2;}
	.st2{clip-path:url(#SVGID_00000065790640723639035100000015487940242663668366_);fill:#FCF9ED;stroke:#3F3007;stroke-width:2.2;}
	.st3{clip-path:url(#SVGID_00000065790640723639035100000015487940242663668366_);fill:#00995E;stroke:#3F3007;stroke-width:2.2;}
	.st4{clip-path:url(#SVGID_00000065790640723639035100000015487940242663668366_);fill:#FD5A46;stroke:#3F3007;stroke-width:2.2;}
</style>
<g>
	<defs>
		<rect id="SVGID_1_" y="0" width="110" height="110"/>
	</defs>
	<clipPath id="SVGID_00000142137477094642363570000013945297678398836139_">
		<use xlink:href="#SVGID_1_"  style="overflow:visible;"/>
	</clipPath>
	
		<circle style="clip-path:url(#SVGID_00000142137477094642363570000013945297678398836139_);fill:#FCF9ED;" cx="55" cy="55" r="55"/>
	
		<path style="clip-path:url(#SVGID_00000142137477094642363570000013945297678398836139_);fill:none;stroke:#3F3007;stroke-width:2.2;" d="
		M19.8,89.1l71.5,0"/>
	
		<path style="clip-path:url(#SVGID_00000142137477094642363570000013945297678398836139_);fill:none;stroke:#3F3007;stroke-width:2.2;" d="
		M55,38.5v-9.9"/>
	
		<rect x="23.1" y="63.8" style="clip-path:url(#SVGID_00000142137477094642363570000013945297678398836139_);fill:#FCF9ED;stroke:#3F3007;stroke-width:2.2;" width="64.9" height="25.3"/>
	
		<rect x="33" y="38.5" style="clip-path:url(#SVGID_00000142137477094642363570000013945297678398836139_);fill:#FCF9ED;stroke:#3F3007;stroke-width:2.2;" width="45.1" height="25.3"/>
	
		<path style="clip-path:url(#SVGID_00000142137477094642363570000013945297678398836139_);fill:#00995E;stroke:#3F3007;stroke-width:2.2;" d="
		M23.1,63.8H88V77l-16.2,2.2l-16.2-4.4l-16.2,4.4L23.1,77V63.8z"/>
	
		<path style="clip-path:url(#SVGID_00000142137477094642363570000013945297678398836139_);fill:#00995E;stroke:#3F3007;stroke-width:2.2;" d="
		M33,38.5h45.1v13.2l-11.3,1.6L55.5,50l-11.3,3.3L33,51.7V38.5z"/>
	
		<path style="clip-path:url(#SVGID_00000142137477094642363570000013945297678398836139_);fill:#FD5A46;stroke:#3F3007;stroke-width:2.2;" d="
		M55,29.7c2.6,0,5-2,5-4.6c0-1.2-0.5-2.8-1.3-4c-0.8-1.2-2-2.4-3.6-2.4s-2.9,1.2-3.6,2.4c-0.8,1.2-1.3,2.7-1.3,4
		C50,27.7,52.4,29.7,55,29.7z"/>
</g>
</svg>
