<?xml version="1.0" encoding="utf-8"?>
<!-- Generator: Adobe Illustrator 27.7.0, SVG Export Plug-In . SVG Version: 6.00 Build 0)  -->
<svg version="1.1" id="レイヤー_1" xmlns="http://www.w3.org/2000/svg" xmlns:xlink="http://www.w3.org/1999/xlink" x="0px"
	 y="0px" viewBox="0 0 110 110" style="enable-background:new 0 0 110 110;" xml:space="preserve">
<style type="text/css">
	.st0{clip-path:url(#SVGID_00000124844852737749035390000013720445871152333726_);fill:#FFFFFF;}
	
		.st1{clip-path:url(#SVGID_00000124844852737749035390000013720445871152333726_);fill:#F0F0F0;stroke:#404040;stroke-width:2.8261;}
</style>
<g>
	<defs>
		<rect id="SVGID_1_" y="0" width="110" height="110"/>
	</defs>
	<clipPath id="SVGID_00000147943105459233580740000002537139580326072998_">
		<use xlink:href="#SVGID_1_"  style="overflow:visible;"/>
	</clipPath>
	
		<circle style="clip-path:url(#SVGID_00000147943105459233580740000002537139580326072998_);fill:#FFFFFF;" cx="55" cy="55" r="55"/>
	
		<path style="clip-path:url(#SVGID_00000147943105459233580740000002537139580326072998_);fill:#F0F0F0;stroke:#404040;stroke-width:2.8261;" d="
		M66.7,16.8L66.7,16.8c3.8,0,6.9,3.1,6.9,6.9v24.4c0,3.8-3.1,6.9-6.9,6.9l0,0c-3.8,0-6.9-3.1-6.9-6.9V23.7
		C59.8,19.9,62.9,16.8,66.7,16.8z"/>
	
		<path style="clip-path:url(#SVGID_00000147943105459233580740000002537139580326072998_);fill:#F0F0F0;stroke:#404040;stroke-width:2.8261;" d="
		M47.6,35.9L47.6,35.9c0-3.8,3.1-6.9,6.9-6.9h24.4c3.8,0,6.9,3.1,6.9,6.9l0,0c0,3.8-3.1,6.9-6.9,6.9H54.5
		C50.7,42.8,47.6,39.7,47.6,35.9z"/>
	
		<path style="clip-path:url(#SVGID_00000147943105459233580740000002537139580326072998_);fill:#F0F0F0;stroke:#404040;stroke-width:2.8261;" d="
		M24.5,73.3L24.5,73.3c0-3.8,3.1-6.9,6.9-6.9h24.4c3.8,0,6.9,3.1,6.9,6.9l0,0c0,3.8-3.1,6.9-6.9,6.9H31.4
		C27.6,80.2,24.5,77.1,24.5,73.3z"/>
	
		<path style="clip-path:url(#SVGID_00000147943105459233580740000002537139580326072998_);fill:#F0F0F0;stroke:#404040;stroke-width:2.8261;" d="
		M43.6,54.2L43.6,54.2c3.8,0,6.9,3.1,6.9,6.9v24.4c0,3.8-3.1,6.9-6.9,6.9l0,0c-3.8,0-6.9-3.1-6.9-6.9V61.1
		C36.7,57.3,39.8,54.2,43.6,54.2z"/>
</g>
</svg>
