<?xml version="1.0" encoding="utf-8"?>
<!-- Generator: Adobe Illustrator 27.7.0, SVG Export Plug-In . SVG Version: 6.00 Build 0)  -->
<svg version="1.1" id="レイヤー_1" xmlns="http://www.w3.org/2000/svg" xmlns:xlink="http://www.w3.org/1999/xlink" x="0px"
	 y="0px" viewBox="0 0 110 110" style="enable-background:new 0 0 110 110;" xml:space="preserve">
<style type="text/css">
	.st0{clip-path:url(#SVGID_00000107574750431618099550000008804931567300623273_);fill:#FCF9ED;}
	
		.st1{clip-path:url(#SVGID_00000107574750431618099550000008804931567300623273_);fill-rule:evenodd;clip-rule:evenodd;fill:#F0B101;}
	.st2{clip-path:url(#SVGID_00000107574750431618099550000008804931567300623273_);fill:#3F3007;}
	
		.st3{clip-path:url(#SVGID_00000107574750431618099550000008804931567300623273_);fill:#FCF9ED;stroke:#3F3007;stroke-width:2.2;stroke-linejoin:bevel;}
	
		.st4{clip-path:url(#SVGID_00000107574750431618099550000008804931567300623273_);fill:#225BA0;stroke:#3F3007;stroke-width:2.2;stroke-linejoin:bevel;}
</style>
<g>
	<defs>
		<rect id="SVGID_1_" y="0" width="110" height="110"/>
	</defs>
	<clipPath id="SVGID_00000018934065719031860300000016003758989081060273_">
		<use xlink:href="#SVGID_1_"  style="overflow:visible;"/>
	</clipPath>
	
		<circle style="clip-path:url(#SVGID_00000018934065719031860300000016003758989081060273_);fill:#FCF9ED;" cx="55" cy="55" r="55"/>
	
		<path style="clip-path:url(#SVGID_00000018934065719031860300000016003758989081060273_);fill-rule:evenodd;clip-rule:evenodd;fill:#F0B101;" d="
		M78.6,62.9L33.8,48.5l-4.3,13.6l16.7,5.3l-8.7,23.4L51,95.2l6.5-24.1l16.7,5.3L78.6,62.9z"/>
	<path style="clip-path:url(#SVGID_00000018934065719031860300000016003758989081060273_);fill:#3F3007;" d="M33.8,48.5l0.3-1
		l-1-0.3l-0.3,1L33.8,48.5z M78.6,62.9l1,0.3l0.3-1l-1-0.3L78.6,62.9z M29.5,62.1l-1-0.3l-0.3,1l1,0.3L29.5,62.1z M46.2,67.4l1,0.4
		l0.4-1.1l-1.1-0.4L46.2,67.4z M37.5,90.8l-1-0.4l-0.4,1.1l1.1,0.4L37.5,90.8z M51,95.2l-0.3,1l1.1,0.4l0.3-1.1L51,95.2z M57.6,71.1
		l0.3-1l-1.1-0.4l-0.3,1.1L57.6,71.1z M74.2,76.4l-0.3,1l1,0.3l0.3-1L74.2,76.4z M33.5,49.6l44.7,14.3l0.7-2.1L34.2,47.5L33.5,49.6z
		 M30.5,62.4l4.3-13.6l-2.1-0.7l-4.3,13.6L30.5,62.4z M46.5,66.4l-16.7-5.3l-0.7,2.1l16.7,5.3L46.5,66.4z M38.5,91.2l8.7-23.4
		l-2.1-0.8l-8.7,23.4L38.5,91.2z M51.4,94.1l-13.6-4.3l-0.7,2.1l13.6,4.3L51.4,94.1z M56.5,70.8L50,94.9l2.1,0.6l6.5-24.1L56.5,70.8
		z M74.6,75.4L57.9,70l-0.7,2.1l16.7,5.3L74.6,75.4z M77.5,62.5l-4.3,13.6l2.1,0.7l4.3-13.6L77.5,62.5z"/>
	
		<path style="clip-path:url(#SVGID_00000018934065719031860300000016003758989081060273_);fill:#FCF9ED;stroke:#3F3007;stroke-width:2.2;stroke-linejoin:bevel;" d="
		M36.5,49.4l6.2-30.9l30.8,9.9l-4.4,13.9l8.2-12.7l11.5,3.7L75.2,61.8L36.5,49.4z"/>
	
		<path style="clip-path:url(#SVGID_00000018934065719031860300000016003758989081060273_);fill:#225BA0;stroke:#3F3007;stroke-width:2.2;stroke-linejoin:bevel;" d="
		M40.2,30.8l2.5-12.3l30.8,9.9l-4.4,13.9l8.2-12.7l11.5,3.7l-3.5,8L40.2,30.8z"/>
	
		<circle style="clip-path:url(#SVGID_00000018934065719031860300000016003758989081060273_);fill:#3F3007;" cx="46.2" cy="86.9" r="2.8"/>
</g>
</svg>
