<svg width="310" height="59" viewBox="0 0 310 59" fill="none" xmlns="http://www.w3.org/2000/svg">
<path d="M31.0927 41.22C31.7527 38.16 33.0727 35.04 34.0927 32.88H35.4727V43.92C31.9327 45 27.2527 45.78 22.3927 45.78C8.53273 45.78 0.432734 37.44 0.432734 24.78C0.432734 12.06 9.91273 3.66 24.3127 3.66C28.0927 3.66 31.0927 4.08 35.1727 5.16V16.8H33.7927C32.5327 14.28 31.8127 12.84 31.0927 10.62C30.6127 10.26 30.0727 9.96 29.4127 9.66C25.9927 8.1 23.1727 7.32 20.8927 7.32C20.1727 7.32 19.6927 7.38 19.2127 7.56C15.3727 8.82 13.1527 16.56 13.1527 23.88C13.1527 36 17.5927 42.42 26.6527 42.42C28.5127 42.42 30.0727 41.88 31.0927 41.22ZM71.4277 38.04C71.4277 40.74 71.5477 41.46 72.0877 42.18C73.1677 42.66 74.1877 43.32 74.8477 43.8V45H57.6277V43.8C58.1677 43.32 59.0077 42.66 59.7877 42.18C60.3277 41.28 60.3877 40.32 60.3877 38.04V33.42C60.3877 31.8 60.3277 29.28 60.2677 28.32C60.0277 24.72 58.7077 22.68 55.6477 22.68C54.5077 22.68 53.7877 22.92 53.3077 23.16V38.04C53.3077 40.8 53.3677 41.4 53.7277 42.18C54.4477 42.66 55.4077 43.32 56.0077 43.8V45H38.9077V43.8C39.5677 43.32 40.6477 42.66 41.7277 42.12C42.3277 41.22 42.3877 40.32 42.3877 38.04V12.9C42.3877 10.68 42.2677 9.24 41.9077 8.4C40.7077 8.1 39.4477 7.74 38.3677 7.32V6.12L52.1077 0.539997H53.3077V21.06C57.2677 17.82 59.9677 16.38 62.0077 16.38C68.6077 16.38 71.4277 19.98 71.4277 25.26V38.04ZM90.5818 6.54C90.5818 9.9 87.8218 12.6 84.4618 12.6C80.9818 12.6 78.2818 9.96 78.2818 6.6C78.2818 3.24 81.0418 0.599999 84.5218 0.599999C87.9418 0.599999 90.5818 3.24 90.5818 6.54ZM90.6418 38.04C90.6418 40.14 90.7018 41.1 91.0018 41.94C92.4418 42.54 93.6418 43.2 94.6018 43.8V45H75.7618V43.8C76.7218 43.2 77.7418 42.6 79.1218 42.06C79.6618 41.16 79.7218 40.26 79.7218 38.04V27.18C79.7218 25.62 79.6018 24.48 79.2418 23.7C78.1018 23.34 76.9618 22.92 76.0018 22.5V21.42L89.6818 16.38H90.8818C90.7018 19.5 90.6418 22.62 90.6418 26.22V38.04ZM108.959 37.08C108.959 38.82 109.439 40.26 110.759 40.8C111.359 41.04 112.559 41.22 114.359 41.4V42.84C111.179 44.58 107.939 45.66 105.059 45.66C100.979 45.66 98.0391 42.6 98.0391 38.88V12.3C98.0391 10.56 97.9791 9.36 97.6791 8.58C96.3591 8.22 94.9791 7.74 93.7791 7.32V6.12L107.639 0.539997H108.959V37.08ZM128.236 37.08C128.236 38.82 128.716 40.26 130.036 40.8C130.636 41.04 131.836 41.22 133.636 41.4V42.84C130.456 44.58 127.216 45.66 124.336 45.66C120.256 45.66 117.316 42.6 117.316 38.88V12.3C117.316 10.56 117.256 9.36 116.956 8.58C115.636 8.22 114.256 7.74 113.056 7.32V6.12L126.916 0.539997H128.236V37.08ZM150.469 17.22H163.669V18.48C162.109 19.56 160.789 20.46 159.649 21C158.869 22.26 157.969 24.36 157.009 26.76C155.569 30.48 150.589 43.2 149.629 45.48C148.669 47.76 148.129 49.02 146.629 51.72C143.929 56.58 140.569 58.92 135.589 58.92C135.169 58.92 133.669 58.86 132.709 58.44C132.289 58.26 131.989 58.02 131.989 57.78C131.989 56.16 133.429 49.68 134.809 49.68C135.469 49.68 136.069 49.8 137.209 50.04C139.729 50.58 140.509 50.7 141.709 50.7C143.569 50.7 144.169 50.4 144.949 48.9C145.369 48.06 145.729 47.22 146.209 46.08L136.489 24.96C135.469 22.68 134.449 21.3 132.409 20.7C131.809 20.52 131.029 20.4 130.129 20.34V18.84C133.369 17.52 136.549 16.38 139.789 16.38C143.989 16.38 145.609 17.7 147.109 21.54L151.489 32.82L153.769 26.64C154.969 23.46 155.149 21.66 155.149 21C154.069 20.52 152.389 19.68 150.469 18.48V17.22ZM196.878 4.38C203.778 4.38 209.058 6.36 212.658 10.2C215.358 13.02 217.338 17.52 217.338 23.76C217.338 36.18 209.658 45 196.758 45H174.858V43.68C175.938 43.02 177.678 42.12 179.118 41.52C179.538 40.98 179.718 39.72 179.718 37.98V11.4C179.718 9.66 179.478 8.52 179.118 7.8C177.978 7.38 176.478 6.66 174.918 5.7V4.38H196.878ZM191.778 42.18L194.298 42.12C201.798 41.88 204.678 36.12 204.678 25.86C204.678 14.64 200.298 7.44 193.398 7.14L191.898 7.08C191.778 10.32 191.718 13.86 191.718 16.44V33.24C191.718 35.7 191.718 39.06 191.778 42.18ZM246.561 37.44C246.561 39.18 247.101 40.5 248.421 40.98C248.901 41.16 249.921 41.34 251.541 41.52V42.96C248.781 44.4 244.941 45.6 242.661 45.6C239.481 45.6 236.961 43.86 236.241 41.28C234.021 43.86 231.561 45.66 227.721 45.66C223.161 45.66 219.741 42.3 219.741 37.74C219.741 35.04 220.581 32.82 222.921 31.38C224.421 30.48 229.221 29.04 235.581 27.6C235.461 24 233.961 22.14 230.121 22.14C227.481 22.14 224.421 23.1 221.961 24L221.301 21.24C225.681 18.54 231.021 16.38 234.981 16.38C240.921 16.38 246.561 18.72 246.561 25.02V37.44ZM230.841 34.98C230.841 37.14 231.441 40.14 234.141 40.14C234.741 40.14 235.281 39.9 235.761 39.54V30.84C233.901 30.96 232.281 31.2 231.861 31.56C231.021 32.28 230.841 33.9 230.841 34.98ZM275.889 40.62C276.309 39.06 277.029 37.2 278.049 34.74H279.609V45H253.029V42.06C254.469 39.96 256.629 36.72 257.349 35.64L263.589 25.86C264.549 24.42 265.869 22.2 266.829 20.52H261.189C259.209 20.52 258.009 20.94 257.229 21.66C256.869 23.28 256.269 25.08 255.369 27H253.809V17.22H279.489V19.8C278.649 21 276.189 24.54 274.869 26.58L269.289 35.34C268.269 36.96 266.829 39.36 265.569 41.64H272.469C274.389 41.64 275.289 41.22 275.889 40.62ZM292.9 30.54C293.38 36.42 296.14 39.6 301.06 39.6C303.28 39.6 306.04 38.76 309.22 37.68L309.88 39.9C305.08 43.62 300.64 45.66 294.52 45.66C287.08 45.66 281.68 39.84 281.68 31.5C281.68 22.32 288.7 16.38 297.16 16.38C305.08 16.38 309.22 19.98 309.88 29.28L308.92 30.54H292.9ZM299.32 27.72C298.9 22.2 297.76 19.14 295.42 19.14C293.38 19.14 292.72 21.3 292.66 27.72H299.32Z" fill="#3F3007"/>
</svg>
